<svg id="圖層_1" data-name="圖層 1" xmlns="http://www.w3.org/2000/svg" viewBox="0 0 500 500"><path d="M364.59,230.61c-21.77-5-31.37-28.67-19.53-47.64,5.62-9,4.67-16.91-2.22-24.3-7.29-7.81-15.84-9.4-25.43-4.15-21.56,11.79-40.94,3.51-48-20.34a72.13,72.13,0,0,0-3.65-8.71c-10.81-9.24-31.69-7.15-35.18,9.13-5,23.57-27.07,31.8-48,19.47-9.15-5.39-17.17-3.39-24.31,3.38s-9.5,14.81-4.31,24.09c12.46,22.26,4.55,42.52-19.72,49.22-9.78,2.7-14.12,8.61-14.24,18.16-.12,9.78,3.22,17.17,13.66,20.27,25.11,7.45,32.71,25.48,20.83,48.66-5,9.79-2.82,18.23,4.93,25.39,7,6.52,14.7,7.2,23.13,2.15,20.36-12.17,42.19-3.35,48.41,19.93,2.81,10.52,9.3,14.58,19.33,14.68,10.21.1,16.61-4.36,19.25-14.74,5.95-23.36,27.22-32,48-19.69,9.15,5.41,17,3.7,24.18-3.35,7.54-7.44,9.53-15.71,3.63-25.33-12.06-19.66-3.26-41.66,19.26-47.33,11.09-2.79,15.5-9.68,15.36-20.33C379.86,239,375.09,233,364.59,230.61Zm-81.19,51.1a46,46,0,0,1-65.54,1c-18.05-17.91-18.18-48.35-.27-65.74,17.68-17.17,47.56-17.13,64.84.07C300.31,234.87,300.74,263.79,283.4,281.71Z"/></svg>