<svg id="圖層_1" data-name="圖層 1" xmlns="http://www.w3.org/2000/svg" viewBox="0 0 500 500"><path d="M372.49,243.62H195.78L234,205.36a7.52,7.52,0,0,0-10.63-10.63l-49.89,50a7.54,7.54,0,0,0,0,10.64l49.89,49.95A7.52,7.52,0,0,0,234,294.64l-35.93-36H372.49a7.52,7.52,0,0,0,0-15Z"/><path d="M316.44,311.18a7.52,7.52,0,0,0-7.51,7.52v33.92A9.35,9.35,0,0,1,299.6,362H144.35a9.35,9.35,0,0,1-9.33-9.34V147.38a9.35,9.35,0,0,1,9.33-9.34H299.6a9.35,9.35,0,0,1,9.33,9.34v50.85a7.51,7.51,0,1,0,15,0V147.38A24.39,24.39,0,0,0,299.6,123H144.35A24.39,24.39,0,0,0,120,147.38V352.62A24.39,24.39,0,0,0,144.35,377H299.6A24.39,24.39,0,0,0,324,352.62V318.7A7.52,7.52,0,0,0,316.44,311.18Z"/></svg>