<svg xmlns="http://www.w3.org/2000/svg" viewBox="0 0 425.42 250.31"><defs><style>.cls-1{fill:#727171;}.cls-1,.cls-2,.cls-3,.cls-6{fill-rule:evenodd;}.cls-2{fill:#172a88;}.cls-3,.cls-5{fill:#161519;}.cls-4{fill:none;stroke:#231815;stroke-miterlimit:22.93;stroke-width:0.57px;}.cls-6{fill:#094;}</style></defs><g id="圖層_2" data-name="圖層 2"><g id="圖層_1-2" data-name="圖層 1"><polygon class="cls-1" points="213.16 182.78 253.73 182.78 253.73 199.35 242.29 199.35 242.29 250.02 225.32 250.02 225.39 199.35 213.16 199.35 213.16 182.78"/><polygon class="cls-1" points="263.38 182.71 297.7 182.71 297.7 196.98 276.29 196.98 276.29 207.63 296.12 207.63 296.12 221.32 276.29 221.32 276.29 234.62 298.38 234.62 298.38 249.84 263.38 249.84 263.38 182.71"/><polygon class="cls-1" points="368.21 182.71 368.21 249.84 384.51 249.84 384.51 221.32 409.98 221.32 409.98 249.84 425.2 249.84 425.2 182.71 409.98 182.71 409.98 208.03 384.5 208.03 384.51 182.71 368.21 182.71"/><path class="cls-1" d="M341.57,234.6c-23.19-.9-21.79-36.9,1.39-36,7.5.3,12.52,4.27,14.91,9.44l0-20.19a33.83,33.83,0,1,0-19.28,62.43,35.27,35.27,0,0,0,19.25-4.89V225.08c-2.64,5.69-8.16,9.84-16.28,9.52"/><path class="cls-2" d="M152.42,74s48.76-34.71,108.12-60.58c2.37-1,4.76-2,7.16-3.06,9-3.19,18.13-6.83,26.95-8.24,1.76-.31,3.63-.6,5.55-.87,9-1.27,19.22-2,25-.17a11,11,0,0,1,2,.82c3.21,1.63,3.21,4.37,2.89,7a13.1,13.1,0,0,1-.78,2.48c-2.41,5.85-10.68,17.21-36.85,37.49L270,49.29s33-25.57,19.84-29.68c0,0-14.77-5.87-70.05,20.27Z"/><polygon class="cls-3" points="93.14 79.72 148.77 79.72 148.77 98.68 130 98.68 130 156.34 111.73 156.34 111.73 98.68 93.14 98.68 93.14 79.72"/><polygon class="cls-4" points="93.14 79.72 148.77 79.72 148.77 98.68 130 98.68 130 156.34 111.73 156.34 111.73 98.68 93.14 98.68 93.14 79.72"/><rect class="cls-5" x="238.08" y="79.72" width="21.64" height="76.62"/><rect class="cls-5" x="403.49" y="79.72" width="21.64" height="76.62"/><rect class="cls-4" x="403.49" y="79.72" width="21.64" height="76.62"/><path class="cls-3" d="M295.43,112.4h5.35c4,0,7-.79,8.79-2.33a8.42,8.42,0,0,0,2.42-6.13,8.94,8.94,0,0,0-2.13-6.11c-1.47-1.68-4.23-2.47-8.23-2.47h-6.2ZM273.78,79.72h35.85c7.83,0,13.76,2.06,17.53,6.14,4.06,4.11,5.91,9.92,5.91,17.41,0,7.7-2.08,13.78-6.31,18.15S316,127.9,307.32,127.9H295.43v28.44H273.78Z"/><polygon class="cls-3" points="344.19 79.72 388.59 79.72 388.59 96.1 360.75 96.1 360.75 108.28 386.51 108.28 386.51 123.91 360.75 123.91 360.75 139.06 389.43 139.06 389.43 156.34 344.19 156.34 344.19 79.72"/><path class="cls-3" d="M180.66,127.18l7.62-27.56,7.78,27.56h-15.4m19.62-47.46H176.84l-26.39,76.62H172.6l3.45-12.61h21.69c10.38-5.93,17.14-10.45,20.3-12.5Zm26.44,76.62-8.52-24.62-17.46,12.67,3.32,12Z"/><path class="cls-6" d="M79.61,157.57C84,154,88,151.65,90.83,151.65l-21.36-4.23s-5.41,4-13.13,10.15Zm101.57-1.52h9.42l27.57-24.29s-12.47,8.82-37,24.29m-5.91,4.57c-.28,0-.51-.06-.86-.06-3.54,2.31-7.15,4.51-10.93,6.93h15.23c1.63-1.47,3.26-2.75,4.85-4.22l2.93-2.65Zm-19.39,11.27c-4.29,2.59-8.79,5.07-13.3,7.55h20.68c3.38-2.48,6.65-5,9.92-7.55ZM135.08,184a1,1,0,0,1-.62-.22c-5,2.64-9.87,5.07-14.76,7.38h26c3.72-2.2,7.39-4.63,11.22-7.16ZM113,195.56a.92.92,0,0,1-.72-.22h-2.43a152.91,152.91,0,0,1-15.5,5.8h34.32c3.16-1.68,6.43-3.55,9.7-5.58ZM77.7,205.7s-.17,0-.17-.11a52.35,52.35,0,0,1-7.39,1.18s-14,3.33-20.74-.32H6.82a46.58,46.58,0,0,0-3.07,5H108.41c3.73-1.81,7.67-3.73,11.67-5.71ZM1.6,215.85A21.52,21.52,0,0,0,.11,220.7H86.27c3.43-1.24,7.61-2.94,12-4.85ZM0,225.21a11.56,11.56,0,0,0,.76,2.65S6,239.47,71,226c0,0,.79-.23,2.42-.79Zm46-23.28a10.45,10.45,0,0,1,.91-5.92H15a76.07,76.07,0,0,0-4.95,5.92Zm3.1-10.49a4.05,4.05,0,0,1,.4-.73s2.08-2.77,5.35-6.76H26.46c-2.53,2.42-5,5-7.38,7.49Zm9.47-12c1.58-1.8,3.21-3.72,4.85-5.59H38.36a2.74,2.74,0,0,1-1-.27c-2.09,1.91-4.2,3.83-6.29,5.86Zm9-10.15c2.26-2.41,4.74-5,7-7.22H51.43a1,1,0,0,1-.44,0c-2.77,2.31-5.65,4.63-8.58,7.27Z"/></g></g></svg>