<svg id="圖層_1" data-name="圖層 1" xmlns="http://www.w3.org/2000/svg" viewBox="0 0 500 500"><path d="M250,115c-74.44,0-135,60.56-135,135s60.56,135,135,135,135-60.56,135-135S324.44,115,250,115ZM357.48,303.2H302.87a301.33,301.33,0,0,0,4.28-45.67H369.7A118.92,118.92,0,0,1,357.48,303.2ZM250,369.44c-12.58,0-26.06-19.37-34.31-51.19h68.62C276.06,350.07,262.58,369.44,250,369.44ZM212.38,303.2a282.71,282.71,0,0,1-4.47-45.67h84.18a282.71,282.71,0,0,1-4.47,45.67ZM130.3,257.53h62.55a301.33,301.33,0,0,0,4.28,45.67H142.52A118.92,118.92,0,0,1,130.3,257.53Zm12.22-60.73h55a299.67,299.67,0,0,0-4.57,45.67H130.3A118.92,118.92,0,0,1,142.52,196.8ZM250,132.57c12.31,0,25.49,18.55,33.77,49.18H216.23C224.51,151.12,237.69,132.57,250,132.57Zm37.25,64.23A281,281,0,0,1,292,242.47H208a281,281,0,0,1,4.79-45.67Zm19.84,45.67a299.67,299.67,0,0,0-4.57-45.67h55a118.92,118.92,0,0,1,12.22,45.67Zm41.48-60.72h-49.3a182.06,182.06,0,0,0-7.14-22.58c-4.15-10.53-9-19.19-14.3-25.85A120.29,120.29,0,0,1,348.57,181.75Zm-126.4-48.43c-5.33,6.66-10.15,15.32-14.3,25.85a182.06,182.06,0,0,0-7.14,22.58h-49.3A120.29,120.29,0,0,1,222.17,133.32ZM151.43,318.25h48.8a184.18,184.18,0,0,0,7.64,24.59,105.19,105.19,0,0,0,12.4,23.37A120.24,120.24,0,0,1,151.43,318.25Zm128.3,48a105.19,105.19,0,0,0,12.4-23.37,184.18,184.18,0,0,0,7.64-24.59h48.8A120.24,120.24,0,0,1,279.73,366.21Z"/></svg>