<svg id="圖層_1" data-name="圖層 1" xmlns="http://www.w3.org/2000/svg" viewBox="0 0 500 500"><path d="M340.73,227.24a7.47,7.47,0,0,0-7.47,7.47v118.5a3.9,3.9,0,0,1-3.85,3.85H140.79a3.9,3.9,0,0,1-3.84-3.85V164.65a3.89,3.89,0,0,1,3.84-3.84H297.62a7.48,7.48,0,0,0,0-14.95H140.79A18.81,18.81,0,0,0,122,164.65V353.21A18.81,18.81,0,0,0,140.79,372H329.41a18.81,18.81,0,0,0,18.8-18.79V234.71A7.48,7.48,0,0,0,340.73,227.24Z"/><path d="M374.29,130.21a10,10,0,0,0-14,1.5L225.21,299.28l-35-46.35a10,10,0,0,0-15.91,12L217,321.47a10,10,0,0,0,7.8,4H225a10,10,0,0,0,7.76-3.72L375.79,144.21A10,10,0,0,0,374.29,130.21Z"/></svg>