<svg id="圖層_1" data-name="圖層 1" xmlns="http://www.w3.org/2000/svg" viewBox="0 0 500 500"><path d="M250,123h0c-69.85,0-127,57.15-127,127h0c0,69.85,57.15,127,127,127h0c69.85,0,127-57.15,127-127h0C377,180.15,319.85,123,250,123Zm9.61,198.1a16.39,16.39,0,0,1-11,4.13,15.18,15.18,0,0,1-15.09-14.88,13.2,13.2,0,0,1,4.55-10.54c2.68-2.89,6.2-4.13,10.54-4.13s8.06,1.24,11,4.13A13.73,13.73,0,0,1,264,310.35,14.52,14.52,0,0,1,259.61,321.1Zm29.56-80.61c-1.86,2.28-7.65,7.65-17.57,16.12a36,36,0,0,0-8.48,10.54,28.08,28.08,0,0,0-3.3,13.85v3.52H237.7V281c0-7.65,1.24-14.26,3.93-19.63,2.89-5.79,10.75-14.26,23.56-25.63l3.51-3.93a23.89,23.89,0,0,0,5.58-15.09c0-7.23-2.06-12.81-6-16.94q-6.19-6.21-17.36-6.2c-9.3,0-16.12,2.89-20.25,8.68-3.72,5-5.58,12.19-5.58,21.29H203.19c0-15.09,4.34-26.87,13.22-35.55,8.69-8.89,20.67-13.23,35.76-13.23,13.43,0,24.18,3.51,32.45,10.95,8.06,7.24,12.19,17.16,12.19,29.56C296.81,225.41,294.13,233.88,289.17,240.49Z"/></svg>