<svg id="圖層_1" data-name="圖層 1" xmlns="http://www.w3.org/2000/svg" viewBox="0 0 500 500"><ellipse cx="204.98" cy="197.89" rx="74.98" ry="74.89"/><path d="M203.86,288.43h2.23A47.87,47.87,0,0,1,254,336.3V374a3,3,0,0,1-3,3H159a3,3,0,0,1-3-3V336.3a47.87,47.87,0,0,1,47.87-47.87Z"/><path d="M316,204.89a43,43,0,1,1-43.05,43,43.07,43.07,0,0,1,43.05-43m0-11a54,54,0,1,0,54.05,54,54,54,0,0,0-54.05-54Z"/><path d="M318,328.53a22.32,22.32,0,0,1,22.3,22.3V366H291.63V350.83a22.33,22.33,0,0,1,22.31-22.3h4m0-11h-4a33.4,33.4,0,0,0-33.31,33.3v24.09a2.09,2.09,0,0,0,2.08,2.08h66.47a2.08,2.08,0,0,0,2.08-2.08V350.83a33.4,33.4,0,0,0-33.3-33.3Z"/></svg>