<?xml version="1.0" encoding="utf-8"?>
<!-- Generator: Adobe Illustrator 16.0.0, SVG Export Plug-In . SVG Version: 6.00 Build 0)  -->
<!DOCTYPE svg PUBLIC "-//W3C//DTD SVG 1.1//EN" "http://www.w3.org/Graphics/SVG/1.1/DTD/svg11.dtd">
<svg version="1.1" id="圖層_1" xmlns="http://www.w3.org/2000/svg" xmlns:xlink="http://www.w3.org/1999/xlink" x="0px" y="0px"
	 width="850.39px" height="850.39px" viewBox="0 0 850.39 850.39" enable-background="new 0 0 850.39 850.39" xml:space="preserve">
<path opacity="0.7" fill="#A8DBE6" d="M204.166,345.92c0,0,55.166-4.964,117.755-42.695
	c62.591-37.73,117.756-119.151,159.128-149.933c41.373-30.779,161.894-49.826,243.999,24.824
	c74.26,67.52,92.297,151.918,96.54,234.33c1.272,24.814,0.056,140-152.767,200.575c-132.223,52.401-303.069,72.594-397.821,62.55
	C158.549,663.66,54.585,575.287,62.011,454.148C68.746,344.295,140.57,349.883,204.166,345.92z"/>
<path opacity="0.7" fill="#BFE0C4" d="M163.142,324.172c0,0,54.894-3.307,117.869-36.726
	c62.976-33.42,119.521-107.394,161.275-134.88c41.756-27.489,161.857-42.294,241.78,28.609
	c72.292,64.131,88.378,142.556,90.811,218.822c0.734,22.967-2.971,129.4-156.048,181.838
	c-132.447,45.362-302.553,60.059-396.436,48.571C110.971,616.788,9.632,532.692,19.624,420.904
	C28.688,319.525,99.897,326.357,163.142,324.172z"/>
<path opacity="0.7" fill="none" stroke="#697992" stroke-miterlimit="10" d="M173.398,386.365c0,0,54.895-3.307,117.869-36.726
	c62.976-33.42,119.521-107.393,161.275-134.88c41.756-27.489,161.857-42.294,241.781,28.609
	c72.292,64.131,88.378,142.556,90.81,218.823c0.735,22.967-2.97,129.4-156.047,181.839
	c-132.447,45.363-302.554,60.058-396.436,48.572C121.229,678.982,19.889,594.885,29.881,483.095
	C38.945,381.717,110.154,388.55,173.398,386.365z"/>
<path opacity="0.7" fill="none" stroke="#697992" stroke-miterlimit="10" d="M673.965,515.382c0,0,14.94-0.899,32.082-9.996
	c17.143-9.097,32.533-29.233,43.899-36.713c11.367-7.481,44.056-11.513,65.81,7.788c19.68,17.455,24.057,38.801,24.72,59.562
	c0.201,6.251-0.809,35.221-42.474,49.494c-36.052,12.347-82.354,16.348-107.906,13.222c-30.33-3.707-57.915-26.598-55.193-57.027
	C637.368,514.117,656.75,515.977,673.965,515.382z"/>
<path opacity="0.7" fill="#8799B2" d="M659.948,527.187c0,0,14.941-0.899,32.083-9.996s32.533-29.232,43.9-36.713
	c11.366-7.481,44.056-11.513,65.81,7.787c19.68,17.457,24.055,38.803,24.718,59.563c0.203,6.251-0.808,35.22-42.474,49.495
	c-36.052,12.346-82.352,16.346-107.906,13.221c-30.33-3.706-57.913-26.598-55.192-57.027
	C623.353,525.923,642.733,527.782,659.948,527.187z"/>
<g>
	<path fill="#DE5466" fill-opacity="0.58" d="M529.979,523.019c-10.801-13.841-30.776-16.306-44.616-5.508l-7.826,6.097
		c-1.856,1.456-4.547,1.124-6-0.737l-6.004-7.696c-10.795-13.841-30.771-16.307-44.614-5.507
		c-39.484,30.854,37.606,118.716,37.606,118.716c1.463,1.865,4.146,2.194,6.01,0.744
		C464.535,629.131,563.147,558.415,529.979,523.019z"/>
	<path fill="#D83B4E" d="M432.342,511.068c5.27-4.116,11.439-6.297,17.653-6.666c-9.63-3.004-20.518-1.403-29.076,5.268
		c-39.484,30.854,37.606,118.718,37.606,118.718c1.463,1.86,4.146,2.193,6.01,0.743c0,0,1.083-0.783,2.979-2.209
		C454.733,611.57,397.088,538.604,432.342,511.068z"/>
	<path fill="#B2CFDE" d="M535.317,550.171c6.229,4.279,9.325,8.644,8.792,12.985c-1.553,12.674-35.495,18.941-75.813,13.989
		s-71.74-19.234-70.176-31.911c0.521-4.294,4.53-7.768,11.5-10.404c-0.01-1.187,0.055-2.428,0.211-3.716
		c-19.825,3.081-32.828,9.465-33.903,18.212c-2.011,16.386,38.606,34.855,90.718,41.25c52.109,6.401,95.99-1.697,98.001-18.08
		c1.069-8.764-9.98-18.107-28.508-25.887C535.928,547.762,535.643,548.949,535.317,550.171z"/>
	<path fill="#88B5CD" d="M544.109,563.156c-1.476,12.073-32.337,18.326-70.104,14.617c1.882,0.282,3.787,0.54,5.703,0.779
		c40.32,4.952,74.259-1.316,75.816-13.99c0.515-4.188-2.362-8.409-8.163-12.545c-3.337-1.861-7.087-3.676-11.218-5.41
		c-0.217,1.159-0.502,2.346-0.827,3.563C541.542,554.45,544.643,558.814,544.109,563.156z"/>
	<path fill="#88B5CD" d="M387.352,550.729c0.827-6.776,8.824-12.137,21.597-15.632c0.217-0.092,0.439-0.185,0.674-0.268
		c-0.009-1.187,0.056-2.428,0.213-3.716c-19.825,3.081-32.829,9.465-33.904,18.212c-2.011,16.386,38.605,34.854,90.719,41.25
		c1.915,0.24,3.812,0.455,5.71,0.648C423.026,584.222,385.413,566.51,387.352,550.729z"/>
	<path fill="#EFCA6A" d="M444.521,487.375l4.387,7.867c0.121,0.203,0.265,0.406,0.458,0.58l6.569,6.162
		c1.185,1.102,0.949,3.055-0.467,3.853l-7.865,4.392c-0.21,0.123-0.416,0.265-0.59,0.458l-6.159,6.572
		c-1.106,1.177-3.053,0.945-3.855-0.473l-4.384-7.869c-0.128-0.202-0.267-0.414-0.459-0.578l-6.574-6.169
		c-1.184-1.102-0.946-3.049,0.465-3.849l7.874-4.391c0.201-0.122,0.415-0.265,0.588-0.456l6.156-6.572
		C441.793,485.697,443.72,485.938,444.521,487.375z"/>
	<path fill="#F6B14F" d="M444.036,510.323c-0.137-0.213-0.272-0.42-0.469-0.592l-6.569-6.16c-1.185-1.1-0.947-3.043,0.469-3.846
		l7.871-4.392c0.21-0.125,0.409-0.271,0.583-0.455l1.747-1.862l-3.147-5.638c-0.803-1.44-2.729-1.676-3.858-0.477l-6.156,6.573
		c-0.174,0.193-0.388,0.338-0.588,0.457l-7.871,4.392c-1.411,0.799-1.65,2.744-0.467,3.849l6.57,6.167
		c0.19,0.161,0.334,0.379,0.464,0.579l4.383,7.867c0.805,1.418,2.75,1.652,3.855,0.477l4.417-4.715L444.036,510.323z"/>
	<path fill="#B2CFDE" d="M394.081,672.876l3.128,5.599c0.087,0.149,0.194,0.312,0.324,0.427l4.69,4.396
		c0.847,0.794,0.672,2.172-0.338,2.751l-5.611,3.121c-0.146,0.09-0.293,0.198-0.425,0.326l-4.388,4.688
		c-0.792,0.843-2.173,0.677-2.75-0.334l-3.125-5.608c-0.093-0.154-0.193-0.309-0.324-0.422l-4.699-4.398
		c-0.837-0.775-0.668-2.171,0.339-2.735l5.618-3.134c0.143-0.09,0.291-0.193,0.417-0.326l4.395-4.698
		C392.139,671.681,393.509,671.847,394.081,672.876z"/>
	<path fill="#B2CFDE" d="M269.223,532.243c6.201-0.727,10.638-6.342,9.913-12.545c-0.727-6.197-6.342-10.636-12.544-9.911
		c-6.199,0.729-10.637,6.344-9.911,12.541C257.407,528.532,263.022,532.969,269.223,532.243z"/>
	<path fill="#88B5CD" d="M269.585,528.144c-3.164-5.378-1.372-12.308,4.005-15.472c0.397-0.228,0.803-0.436,1.213-0.616
		c-3.55-2.726-8.528-3.19-12.625-0.784c-5.376,3.164-7.18,10.09-4.006,15.478c2.928,4.983,9.088,6.888,14.263,4.622
		C271.316,530.515,270.339,529.432,269.585,528.144z"/>
	<path fill="#EFCA6A" d="M392.291,464.595c7.689-0.9,13.192-7.863,12.291-15.554c-0.9-7.689-7.865-13.194-15.554-12.293
		c-7.689,0.899-13.194,7.864-12.293,15.555C377.636,459.993,384.601,465.495,392.291,464.595z"/>
	<path fill="#F6B14F" d="M388.164,450.361c0.695-5.648,4.665-10.098,9.766-11.681c-1.653-0.999-3.527-1.678-5.564-1.93
		c-7.681-0.941-14.682,4.523-15.625,12.21c-0.942,7.684,4.531,14.683,12.206,15.624c2.039,0.252,4.024,0.045,5.862-0.526
		C390.244,461.288,387.472,456.014,388.164,450.361z"/>
	<path fill="#EFCA6A" d="M396.092,562.481c4.694,0.578,8.029,4.842,7.452,9.535c-0.569,4.688-4.843,8.021-9.537,7.453
		c-4.688-0.579-8.025-4.85-7.448-9.534C387.135,565.24,391.402,561.906,396.092,562.481z"/>
	<path fill="#040000" d="M539.342,544.848c0.074-0.468,0.128-0.939,0.175-1.406c0.84-8.641-1.625-16.137-7.354-22.299
		c-11.776-14.973-33.53-17.625-48.566-5.896l-7.826,6.095c-0.607,0.477-1.489,0.37-1.969-0.238l-6-7.703
		c-2.436-3.107-5.336-5.744-8.564-7.831c0.145-0.387,0.251-0.8,0.293-1.22c0.198-1.659-0.41-3.327-1.623-4.458l-6.522-6.115
		l-4.356-7.803c-0.832-1.495-2.283-2.475-3.961-2.679c-1.687-0.206-3.327,0.391-4.498,1.639l-6.111,6.526l-7.82,4.359
		c-1.463,0.83-2.456,2.324-2.654,3.997c-0.192,1.659,0.419,3.324,1.624,4.457l0.124,0.11c-1.587,0.881-3.116,1.887-4.582,3.019
		c-3.049,2.388-5.533,5.143-7.457,8.261c-0.01,0.015-0.018,0.024-0.02,0.038c-0.035,0.04-0.052,0.083-0.078,0.125
		c-2.298,3.759-3.776,8.049-4.425,12.82c-20.833,3.585-32.919,10.767-34.093,20.337c-0.764,6.229,3.033,12.482,11.108,18.46
		c-0.071,0.219-0.137,0.438-0.198,0.655c-0.763,2.959-0.333,6.038,1.21,8.674c1.545,2.628,4.033,4.501,6.983,5.274
		c0.503,0.122,1.004,0.218,1.504,0.283c2.479,0.305,4.977-0.22,7.162-1.504c1.217-0.717,2.269-1.632,3.128-2.699
		c6.12,2.549,12.891,4.876,20.164,6.952c1.937,3.342,4.022,6.774,6.279,10.291c12.194,19.019,24.991,33.815,25.894,34.852
		c1.215,1.523,2.921,2.415,4.715,2.631c1.801,0.227,3.685-0.237,5.229-1.418c0.99-0.712,17.886-12.98,34.968-29.396
		c2.275-2.189,4.453-4.347,6.529-6.476c9.876-0.274,19.06-1.153,27.208-2.649c20.128-3.724,31.383-10.653,32.537-20.068
		C568.678,563.256,558.692,553.361,539.342,544.848z M533.908,587.251c-18.224,3.367-41.987,3.538-66.911,0.475
		c-22.947-2.82-44.271-8.056-60.677-14.856c0.452-2.646-0.04-5.345-1.418-7.692c-1.545-2.641-4.028-4.503-6.981-5.271
		c-2.959-0.762-6.031-0.334-8.67,1.208c-0.696,0.416-1.347,0.898-1.935,1.439c-5.942-4.5-9.006-8.991-8.531-12.879
		c0.709-5.793,9.098-10.854,22.896-14.068c-3.83,2.591-5.983,5.695-6.419,9.278c-2.059,16.757,35.91,30.601,72.682,35.111
		c19.776,2.434,38.72,2.283,53.314-0.404c15.886-2.94,24.774-8.498,25.708-16.083c0.438-3.599-0.909-7.144-4.014-10.587
		c12.628,6.461,19.546,13.415,18.841,19.225C561.012,578.523,550.589,584.172,533.908,587.251z M462.766,626.863
		c-0.613,0.481-1.497,0.371-1.97-0.236l-0.108-0.134c-0.128-0.15-13.11-15.017-25.466-34.299c-1.031-1.606-2.085-3.281-3.134-5.004
		c10.692,2.653,22.246,4.778,34.213,6.241c11.437,1.401,22.647,2.13,33.241,2.214c-17.972,17.617-36.331,30.894-36.686,31.145
		L462.766,626.863z M397.929,575.864c-1.305,0.772-2.831,0.982-4.302,0.608c-1.471-0.386-2.7-1.319-3.468-2.627
		c-0.771-1.308-0.987-2.829-0.612-4.299c0.387-1.474,1.317-2.702,2.625-3.476c1.084-0.64,2.325-0.886,3.557-0.746
		c0.251,0.032,0.498,0.079,0.744,0.151c1.467,0.377,2.705,1.307,3.471,2.609c0.775,1.314,0.986,2.841,0.603,4.317
		C400.167,573.866,399.23,575.099,397.929,575.864z M428.017,500.518l7.307-4.07c0.028-0.012,0.049-0.029,0.07-0.049
		c0.314-0.187,0.788-0.492,1.229-0.973l5.701-6.082l4.071,7.303c0.021,0.017,0.027,0.047,0.043,0.072
		c0.19,0.318,0.502,0.783,0.979,1.221l6.088,5.705l-7.307,4.077c-0.028,0.013-0.05,0.021-0.069,0.042
		c-0.322,0.186-0.785,0.492-1.228,0.974l-5.704,6.088l-4.071-7.303c-0.019-0.028-0.034-0.055-0.044-0.073
		c-0.189-0.318-0.498-0.793-0.979-1.223L428.017,500.518z M430.136,510.382l4.366,7.826c0.826,1.46,2.304,2.439,3.963,2.646
		c0.013,0.003,0.016,0.003,0.027,0.005c1.662,0.193,3.326-0.42,4.457-1.636l6.114-6.515l5.649-3.157
		c3.269,1.845,6.175,4.344,8.556,7.389l6.008,7.696c1.171,1.506,2.857,2.464,4.757,2.699c0.005,0.002,0.005,0.002,0.012,0.002
		c1.89,0.226,3.762-0.29,5.267-1.46l7.815-6.102c12.578-9.802,30.777-7.555,40.584,5.002l0.166,0.205
		c4.672,4.983,6.605,10.835,5.911,17.898c-0.485,4.93-2.219,10.135-4.853,15.42c-3.984,1.504-8.354,2.626-13.982,3.615
		c-1.564,0.271-2.608,1.755-2.334,3.328c0.229,1.274,1.263,2.201,2.482,2.353c0.275,0.033,0.56,0.028,0.845-0.026
		c3.277-0.568,6.167-1.19,8.818-1.911c-1.798,2.852-3.808,5.693-5.959,8.522c-13.845,2.344-31.579,2.394-50.159,0.108
		c-19.119-2.346-36.778-6.87-49.768-12.732c-1.162-2.86-2.21-5.732-3.101-8.577c13.843,7.195,32.983,12.739,52.8,15.182
		c8.306,1.02,16.553,1.492,24.5,1.407c1.581-0.019,2.86-1.317,2.839-2.905c-0.017-1.588-1.319-2.874-2.904-2.846
		c-7.69,0.083-15.676-0.382-23.731-1.364c-21.587-2.649-42.21-9.056-55.536-17.212c-0.696-3.35-1.117-6.627-1.191-9.778
		c5.843,3.642,13.115,7.041,21.36,9.946c3.652,1.281,7.508,2.469,11.466,3.524c0.132,0.039,0.261,0.062,0.398,0.081
		c1.401,0.169,2.745-0.713,3.117-2.119c0.416-1.531-0.496-3.103-2.031-3.516c-3.817-1.02-7.527-2.155-11.042-3.39
		c-9.187-3.235-17.048-7.074-22.869-11.15c0.406-2.688,1.12-5.164,2.15-7.426c8.834,5.45,20.354,10.09,33.573,13.479
		c0.12,0.031,0.246,0.06,0.368,0.07c1.415,0.176,2.768-0.722,3.126-2.139c0.395-1.538-0.523-3.108-2.062-3.494
		c-12.501-3.21-23.725-7.717-32.012-12.833c1.297-1.653,2.82-3.18,4.59-4.559c1.723-1.342,3.574-2.473,5.497-3.383L430.136,510.382z
		 M411.208,557.59c-10-5.997-10.416-10.562-10.239-12.002c0.339-2.737,3.023-4.879,6.04-6.467
		C407.515,544.786,408.912,550.947,411.208,557.59z M536.711,554.851c2.67,2.312,4.896,5.135,4.551,7.952
		c-0.188,1.487-1.795,6.071-14.006,9.521C531.48,566.159,534.64,560.334,536.711,554.851z"/>
	<path fill="#040000" d="M468.598,538.818c1.157,0.161,2.352,0.318,3.531,0.465c6.374,0.779,12.759,1.246,18.965,1.375
		c1.59,0.035,2.905-1.225,2.936-2.814c0.042-1.587-1.225-2.897-2.815-2.935c-6.008-0.126-12.205-0.574-18.388-1.334
		c-1.148-0.142-2.3-0.295-3.431-0.45c-1.575-0.225-3.022,0.866-3.245,2.433C465.929,537.137,467.022,538.595,468.598,538.818z"/>
	<path fill="#040000" d="M470.945,550.918c-0.164,1.567,0.955,2.966,2.51,3.16c0.015,0.005,0.032,0.003,0.05,0.005
		c14.236,1.515,28.222,1.396,40.438-0.353c1.57-0.219,2.664-1.682,2.437-3.257c-0.218-1.569-1.679-2.658-3.253-2.427
		c-11.751,1.666-25.243,1.789-39.017,0.316C472.53,548.196,471.119,549.341,470.945,550.918z"/>
	<path fill="#040000" d="M404.191,681.195l-4.56-4.271l-3.042-5.458c-0.714-1.283-1.999-2.155-3.442-2.328
		c-1.456-0.18-2.912,0.356-3.917,1.429l-4.269,4.549l-5.47,3.06c-1.277,0.722-2.133,2.024-2.301,3.474
		c-0.173,1.445,0.359,2.886,1.41,3.865l4.565,4.273l3.051,5.475c0.715,1.261,1.999,2.124,3.439,2.298
		c0.009,0.005,0.022,0.003,0.025,0.003c1.442,0.17,2.9-0.361,3.877-1.414l4.276-4.553l5.47-3.06
		c1.272-0.716,2.136-2.007,2.308-3.458C405.783,683.633,405.243,682.182,404.191,681.195z M394.799,686.701
		c-0.418,0.252-0.76,0.53-1.06,0.842l-3.288,3.514l-2.355-4.222c-0.013-0.023-0.029-0.052-0.043-0.08
		c-0.25-0.408-0.526-0.761-0.844-1.049l-3.507-3.294l4.216-2.358c0.024-0.013,0.048-0.024,0.071-0.034
		c0.418-0.257,0.77-0.528,1.06-0.843l3.292-3.522l2.354,4.235c0.011,0.014,0.028,0.042,0.045,0.063
		c0.253,0.424,0.523,0.769,0.843,1.062l3.514,3.289l-4.227,2.355C394.847,686.676,394.823,686.689,394.799,686.701z
		 M391.563,674.266l0.008,0.006C391.563,674.266,391.563,674.266,391.563,674.266z"/>
	<path fill="#040000" d="M388.602,467.438c9.254,1.138,17.691-5.464,18.832-14.71c1.132-9.246-5.461-17.692-14.716-18.826
		c-9.24-1.136-17.686,5.466-18.826,14.71C372.759,457.861,379.36,466.303,388.602,467.438z M401.73,452.025
		c-0.749,6.102-6.325,10.451-12.432,9.704c-6.092-0.747-10.449-6.315-9.7-12.418c0.751-6.099,6.325-10.455,12.416-9.705
		C398.124,440.354,402.478,445.933,401.73,452.025z"/>
	<path fill="#B3DAB2" d="M612.15,567.558c7.69,0.942,13.153,7.935,12.207,15.625c-0.946,7.687-7.938,13.15-15.628,12.209
		c-7.679-0.947-13.146-7.936-12.202-15.622C597.469,572.083,604.468,566.617,612.15,567.558z"/>
	<path fill="#95B571" d="M607.946,581.161c0.696-5.647,4.665-10.092,9.767-11.676c-1.646-1.001-3.523-1.679-5.564-1.928
		c-7.679-0.946-14.682,4.518-15.621,12.208c-0.946,7.687,4.526,14.676,12.202,15.622c2.044,0.255,4.024,0.042,5.866-0.521
		C610.029,592.088,607.252,586.81,607.946,581.161z"/>
	<path fill="#040000" d="M608.387,598.245c9.253,1.125,17.688-5.472,18.828-14.713c1.135-9.248-5.459-17.695-14.718-18.837
		c-9.242-1.134-17.686,5.47-18.822,14.715C592.542,588.66,599.145,597.108,608.387,598.245z M621.516,582.83
		c-0.751,6.104-6.329,10.45-12.435,9.702c-6.093-0.748-10.449-6.319-9.701-12.419c0.75-6.1,6.325-10.449,12.417-9.7
		C617.901,571.16,622.26,576.725,621.516,582.83z"/>
	<path fill="#C492C0" d="M120.732,444.222c4.808,0.592,8.217,4.962,7.634,9.766c-0.596,4.803-4.962,8.22-9.772,7.632
		c-4.797-0.588-8.218-4.965-7.629-9.766C111.555,447.047,115.928,443.631,120.732,444.222z"/>
	<path fill="#CFA7CD" d="M118.107,452.725c0.436-3.528,2.916-6.309,6.105-7.297c-1.029-0.624-2.2-1.052-3.478-1.205
		c-4.797-0.59-9.177,2.826-9.767,7.629c-0.588,4.803,2.831,9.18,7.63,9.77c1.278,0.154,2.517,0.03,3.666-0.33
		C119.406,459.557,117.671,456.26,118.107,452.725z"/>
	<path fill="#040000" d="M118.379,463.402c5.783,0.708,11.059-3.417,11.775-9.195c0.703-5.781-3.416-11.06-9.201-11.77
		c-5.778-0.709-11.051,3.418-11.769,9.197C108.479,457.412,112.601,462.692,118.379,463.402z M126.584,453.767
		c-0.468,3.813-3.953,6.533-7.767,6.066c-3.808-0.468-6.533-3.95-6.065-7.765c0.471-3.81,3.954-6.534,7.759-6.063
		C124.329,446.472,127.051,449.958,126.584,453.767z"/>
	<path fill="#040000" d="M266.201,535.082c2.987,0.369,6.114-0.207,8.899-1.849c6.737-3.958,8.997-12.666,5.028-19.409
		c-3.962-6.739-12.665-8.993-19.408-5.031c-6.729,3.965-8.997,12.67-5.035,19.405C258.014,532.157,261.969,534.566,266.201,535.082z
		 M263.636,513.75c1.946-1.141,4.21-1.457,6.39-0.893c2.18,0.569,4.011,1.949,5.147,3.887c2.353,4.004,1.015,9.186-2.988,11.538
		c-4.008,2.355-9.188,1.013-11.544-2.994C258.289,521.279,259.634,516.104,263.636,513.75z"/>
	<path fill="#040000" d="M247.842,678.464c-0.047-0.183-0.115-0.354-0.201-0.535c-0.08-0.159-0.185-0.324-0.301-0.473
		c-0.114-0.14-0.252-0.28-0.39-0.407c-0.148-0.125-0.3-0.229-0.462-0.325c-0.159-0.092-0.338-0.167-0.512-0.225
		c-0.362-0.126-0.735-0.172-1.115-0.134c-0.183,0.006-0.37,0.042-0.557,0.097c-0.18,0.051-0.354,0.12-0.519,0.201
		c-0.173,0.082-0.33,0.186-0.476,0.303c-0.156,0.111-0.291,0.244-0.406,0.382c-0.127,0.152-0.237,0.307-0.323,0.471
		c-0.101,0.153-0.178,0.323-0.231,0.507c-0.055,0.183-0.101,0.364-0.124,0.556c-0.026,0.18-0.028,0.377-0.015,0.554
		c0.016,0.19,0.044,0.378,0.105,0.56c0.046,0.185,0.111,0.361,0.199,0.523c0.081,0.169,0.183,0.336,0.301,0.474
		c0.117,0.164,0.239,0.294,0.392,0.416c0.137,0.117,0.293,0.23,0.452,0.318c0.17,0.103,0.345,0.175,0.521,0.234
		c0.179,0.057,0.358,0.102,0.544,0.12c0.188,0.031,0.377,0.026,0.57,0.014c0.183-0.012,0.373-0.043,0.552-0.091
		c0.181-0.061,0.354-0.126,0.529-0.208c0.165-0.077,0.326-0.185,0.477-0.3c0.144-0.123,0.288-0.246,0.404-0.383
		c0.122-0.149,0.23-0.312,0.324-0.471c0.096-0.161,0.172-0.336,0.227-0.509c0.06-0.182,0.094-0.367,0.119-0.554
		c0.025-0.188,0.032-0.376,0.017-0.566C247.927,678.831,247.895,678.632,247.842,678.464z"/>
	<path fill="#040000" d="M412.834,595.053c-0.044-0.187-0.117-0.362-0.199-0.526c-0.085-0.166-0.185-0.33-0.298-0.479
		c-0.117-0.151-0.252-0.29-0.393-0.408c-0.142-0.123-0.299-0.228-0.464-0.316c-0.162-0.097-0.333-0.185-0.512-0.231
		c-0.355-0.117-0.74-0.17-1.108-0.136c-0.19,0.015-0.375,0.043-0.558,0.101c-0.185,0.044-0.361,0.115-0.522,0.202
		c-0.168,0.086-0.332,0.185-0.482,0.3c-0.149,0.111-0.287,0.244-0.405,0.389c-0.122,0.141-0.232,0.291-0.323,0.456
		c-0.093,0.163-0.17,0.342-0.227,0.521c-0.064,0.175-0.1,0.359-0.125,0.543c-0.024,0.184-0.031,0.377-0.015,0.565
		c0.015,0.194,0.049,0.372,0.097,0.558c0.05,0.179,0.122,0.358,0.202,0.518c0.083,0.174,0.184,0.332,0.295,0.484
		c0.12,0.15,0.252,0.284,0.391,0.409c0.142,0.122,0.296,0.227,0.462,0.319c0.165,0.091,0.34,0.175,0.52,0.226
		c0.175,0.062,0.366,0.106,0.546,0.132c0.181,0.014,0.378,0.026,0.563,0.005c0.189-0.009,0.375-0.044,0.55-0.097
		c0.18-0.047,0.361-0.12,0.529-0.195c0.167-0.098,0.327-0.192,0.482-0.297c0.141-0.126,0.28-0.258,0.399-0.404
		c0.127-0.137,0.23-0.29,0.324-0.454c0.091-0.164,0.173-0.343,0.227-0.52c0.063-0.182,0.106-0.362,0.128-0.554
		c0.021-0.179,0.024-0.367,0.007-0.559C412.921,595.425,412.886,595.235,412.834,595.053z"/>
	<path fill="#040000" d="M402.364,646.695c-0.054-0.181-0.122-0.356-0.206-0.535c-0.08-0.16-0.185-0.324-0.292-0.473
		c-0.589-0.743-1.53-1.166-2.479-1.091c-0.193,0.009-0.377,0.044-0.558,0.092c-0.181,0.055-0.363,0.113-0.527,0.208
		c-0.173,0.077-0.333,0.181-0.479,0.298c-0.144,0.124-0.287,0.249-0.405,0.384c-0.122,0.149-0.229,0.3-0.323,0.462
		c-0.093,0.163-0.168,0.345-0.226,0.517c-0.061,0.185-0.105,0.369-0.128,0.556c-0.092,0.748,0.126,1.521,0.589,2.112
		c0.116,0.15,0.247,0.289,0.39,0.415c0.142,0.117,0.291,0.222,0.464,0.313c0.164,0.095,0.333,0.18,0.513,0.239
		c0.177,0.06,0.366,0.1,0.544,0.117c0.754,0.099,1.521-0.117,2.123-0.588c0.597-0.465,0.998-1.157,1.086-1.916
		c0.023-0.186,0.028-0.379,0.01-0.563C402.442,647.063,402.412,646.871,402.364,646.695z"/>
	<path fill="#040000" d="M471.372,455.458c0.057,0.181,0.115,0.358,0.205,0.521c0.085,0.175,0.189,0.335,0.3,0.483
		c0.117,0.146,0.25,0.282,0.387,0.409c0.146,0.123,0.305,0.231,0.463,0.323c0.163,0.089,0.336,0.167,0.511,0.225
		c0.188,0.063,0.365,0.102,0.554,0.127c0.184,0.02,0.382,0.023,0.567,0.01c0.182-0.013,0.375-0.044,0.55-0.095
		c0.187-0.052,0.356-0.118,0.529-0.205c0.165-0.085,0.332-0.188,0.475-0.304c0.146-0.113,0.288-0.244,0.411-0.39
		c0.116-0.141,0.226-0.295,0.322-0.457c0.092-0.164,0.166-0.342,0.223-0.513c0.066-0.185,0.103-0.367,0.128-0.557
		c0.024-0.186,0.031-0.376,0.01-0.562c-0.018-0.185-0.046-0.375-0.094-0.557c-0.048-0.179-0.123-0.358-0.205-0.524
		c-0.084-0.167-0.184-0.327-0.306-0.475c-0.108-0.148-0.243-0.287-0.381-0.412c-0.152-0.123-0.302-0.23-0.463-0.319
		c-0.16-0.092-0.342-0.171-0.515-0.23c-0.354-0.12-0.738-0.171-1.122-0.137c-0.183,0.013-0.371,0.051-0.546,0.098
		c-0.178,0.048-0.361,0.115-0.53,0.201c-0.168,0.085-0.326,0.184-0.476,0.302c-0.595,0.46-0.993,1.166-1.081,1.914
		c-0.024,0.187-0.029,0.377-0.018,0.566C471.288,455.092,471.314,455.278,471.372,455.458z"/>
	<path fill="#040000" d="M490.869,481.226c0.046,0.182,0.112,0.36,0.198,0.523c0.088,0.166,0.194,0.331,0.301,0.477
		c0.122,0.154,0.25,0.285,0.392,0.411c0.142,0.124,0.29,0.23,0.467,0.32c0.155,0.098,0.33,0.176,0.51,0.227
		c0.176,0.062,0.36,0.104,0.552,0.132c0.179,0.021,0.375,0.021,0.565,0.006c0.183-0.01,0.371-0.046,0.556-0.1
		c0.176-0.047,0.348-0.112,0.524-0.197c0.16-0.086,0.322-0.185,0.478-0.302c0.143-0.112,0.282-0.249,0.409-0.391
		c0.113-0.14,0.223-0.295,0.314-0.46c0.1-0.16,0.172-0.337,0.23-0.514c0.066-0.18,0.104-0.364,0.132-0.554
		c0.021-0.183,0.024-0.371,0.009-0.561c-0.021-0.187-0.051-0.376-0.105-0.552c-0.047-0.183-0.115-0.363-0.195-0.527
		c-0.09-0.172-0.188-0.332-0.3-0.476c-0.123-0.151-0.253-0.286-0.395-0.411c-0.148-0.122-0.295-0.229-0.456-0.328
		c-0.162-0.085-0.344-0.162-0.518-0.221c-0.363-0.12-0.735-0.166-1.116-0.134c-0.188,0.012-0.373,0.044-0.551,0.093
		c-0.19,0.05-0.362,0.115-0.528,0.2c-0.172,0.089-0.327,0.188-0.478,0.306c-0.143,0.112-0.286,0.242-0.405,0.391
		c-0.127,0.138-0.233,0.293-0.321,0.46c-0.097,0.16-0.174,0.337-0.237,0.515c-0.055,0.177-0.095,0.364-0.118,0.548
		c-0.021,0.186-0.021,0.376-0.014,0.564C490.782,480.857,490.812,481.049,490.869,481.226z"/>
	<path fill="#040000" d="M351.457,541.626c-0.081-0.169-0.183-0.335-0.302-0.476c-0.582-0.749-1.528-1.174-2.478-1.098
		c-0.189,0.008-0.374,0.045-0.551,0.097c-0.186,0.05-0.366,0.117-0.53,0.201c-0.174,0.091-0.327,0.183-0.479,0.303
		c-0.15,0.109-0.281,0.246-0.404,0.386c-0.126,0.147-0.229,0.305-0.324,0.466c-0.091,0.16-0.176,0.338-0.234,0.512
		c-0.053,0.179-0.1,0.365-0.123,0.55c-0.093,0.758,0.121,1.528,0.591,2.123c0.112,0.146,0.249,0.286,0.391,0.406
		c0.137,0.128,0.292,0.227,0.461,0.32c0.167,0.099,0.334,0.175,0.514,0.231c0.175,0.054,0.361,0.101,0.546,0.123
		c0.181,0.028,0.376,0.028,0.563,0.012c0.188-0.012,0.374-0.044,0.557-0.098c0.177-0.049,0.357-0.106,0.524-0.196
		c0.167-0.091,0.332-0.188,0.478-0.308c0.149-0.113,0.288-0.243,0.411-0.39c0.117-0.137,0.23-0.295,0.319-0.458
		c0.094-0.163,0.169-0.341,0.226-0.517c0.063-0.179,0.102-0.359,0.125-0.545c0.022-0.191,0.026-0.378,0.017-0.567
		c-0.019-0.185-0.05-0.371-0.095-0.555C351.607,541.964,351.536,541.789,351.457,541.626z"/>
	<path fill="#040000" d="M397.078,505.761c-0.189,0.008-0.372,0.044-0.547,0.098c-0.193,0.049-0.365,0.11-0.533,0.195
		c-0.168,0.089-0.325,0.191-0.472,0.312c-0.143,0.106-0.283,0.238-0.41,0.383c-0.119,0.142-0.225,0.292-0.322,0.46
		c-0.094,0.161-0.173,0.335-0.233,0.508c-0.053,0.186-0.097,0.368-0.122,0.555c-0.022,0.186-0.023,0.379-0.014,0.566
		c0.018,0.188,0.047,0.37,0.103,0.551c0.054,0.187,0.118,0.363,0.2,0.527c0.087,0.165,0.19,0.323,0.306,0.476
		c0.115,0.154,0.242,0.286,0.384,0.407c0.144,0.126,0.293,0.23,0.468,0.324c0.153,0.096,0.328,0.172,0.504,0.227
		c0.182,0.062,0.366,0.102,0.556,0.128c0.746,0.085,1.52-0.12,2.12-0.59c0.147-0.113,0.29-0.25,0.41-0.39
		c0.121-0.137,0.225-0.29,0.321-0.46c0.095-0.16,0.165-0.333,0.226-0.514c0.064-0.18,0.095-0.361,0.119-0.547
		c0.09-0.759-0.119-1.533-0.579-2.124C398.976,506.106,398.025,505.68,397.078,505.761z"/>
	<path fill="#040000" d="M504.07,622.238c-0.187,0.002-0.373,0.045-0.545,0.097c-0.193,0.045-0.365,0.118-0.533,0.196
		c-0.17,0.094-0.326,0.19-0.475,0.305c-0.143,0.115-0.285,0.24-0.408,0.385c-0.125,0.138-0.227,0.296-0.326,0.465
		c-0.095,0.16-0.171,0.344-0.232,0.507c-0.055,0.185-0.096,0.368-0.117,0.555c-0.025,0.187-0.025,0.376-0.014,0.57
		c0.012,0.18,0.047,0.369,0.098,0.545c0.055,0.189,0.122,0.371,0.203,0.528c0.084,0.168,0.19,0.332,0.304,0.476
		c0.115,0.155,0.245,0.28,0.385,0.406c0.145,0.13,0.295,0.231,0.469,0.326c0.153,0.094,0.324,0.169,0.508,0.229
		c0.172,0.059,0.363,0.099,0.55,0.127c0.751,0.088,1.521-0.129,2.125-0.594c0.143-0.109,0.285-0.25,0.408-0.386
		c0.118-0.138,0.221-0.292,0.319-0.457c0.095-0.165,0.166-0.338,0.225-0.517c0.063-0.182,0.099-0.361,0.12-0.547
		c0.092-0.761-0.118-1.531-0.581-2.126C505.97,622.585,505.021,622.155,504.07,622.238z"/>
	<path fill="#040000" d="M525.666,417.849c-0.187,0.007-0.375,0.043-0.547,0.095c-0.194,0.049-0.364,0.116-0.531,0.196
		c-0.171,0.094-0.328,0.194-0.475,0.312c-0.145,0.111-0.282,0.238-0.413,0.387c-0.117,0.139-0.222,0.292-0.321,0.458
		c-0.092,0.163-0.168,0.337-0.232,0.508c-0.053,0.186-0.095,0.367-0.118,0.556c-0.029,0.188-0.029,0.379-0.017,0.565
		c0.019,0.187,0.049,0.374,0.102,0.551c0.052,0.189,0.117,0.365,0.201,0.531c0.084,0.165,0.19,0.324,0.308,0.475
		c0.113,0.148,0.241,0.286,0.383,0.404c0.145,0.125,0.293,0.233,0.467,0.325c0.153,0.095,0.327,0.172,0.508,0.229
		c0.179,0.061,0.364,0.104,0.552,0.129c0.749,0.085,1.524-0.125,2.121-0.593c0.145-0.115,0.289-0.249,0.411-0.392
		c0.116-0.136,0.224-0.291,0.318-0.458c0.093-0.163,0.166-0.338,0.227-0.517c0.068-0.177,0.097-0.36,0.121-0.546
		c0.087-0.76-0.123-1.534-0.582-2.125C527.568,418.196,526.611,417.769,525.666,417.849z"/>
	<path fill="#040000" d="M353.267,381.976c-0.188,0.008-0.374,0.043-0.546,0.094c-0.195,0.049-0.367,0.114-0.538,0.195
		c-0.167,0.092-0.325,0.191-0.469,0.31c-0.145,0.112-0.286,0.239-0.41,0.385c-0.123,0.138-0.228,0.293-0.326,0.458
		c-0.092,0.164-0.168,0.337-0.231,0.508c-0.054,0.188-0.096,0.371-0.121,0.557c-0.023,0.186-0.028,0.377-0.016,0.565
		c0.014,0.187,0.048,0.374,0.101,0.552c0.054,0.188,0.121,0.364,0.201,0.529c0.088,0.163,0.19,0.325,0.306,0.479
		c0.115,0.151,0.244,0.281,0.388,0.403c0.143,0.129,0.292,0.231,0.467,0.325c0.153,0.095,0.325,0.17,0.505,0.227
		c0.174,0.061,0.365,0.104,0.555,0.127c0.746,0.087,1.52-0.121,2.12-0.592c0.146-0.114,0.287-0.249,0.412-0.39
		c0.116-0.135,0.22-0.291,0.317-0.457c0.094-0.164,0.167-0.336,0.227-0.517c0.066-0.178,0.097-0.361,0.12-0.546
		c0.091-0.757-0.117-1.534-0.581-2.124C355.165,382.321,354.215,381.894,353.267,381.976z"/>
	<path fill="#040000" d="M401.606,257.905c-0.188,0.006-0.373,0.043-0.547,0.094c-0.195,0.048-0.363,0.114-0.535,0.195
		c-0.167,0.091-0.324,0.191-0.472,0.312c-0.14,0.107-0.281,0.239-0.407,0.385c-0.122,0.138-0.228,0.292-0.326,0.458
		c-0.095,0.167-0.17,0.338-0.231,0.509c-0.054,0.185-0.098,0.367-0.121,0.556c-0.025,0.187-0.026,0.378-0.015,0.565
		c0.019,0.188,0.049,0.374,0.099,0.554c0.057,0.186,0.119,0.366,0.205,0.531c0.084,0.164,0.191,0.324,0.305,0.474
		c0.117,0.15,0.245,0.285,0.386,0.406c0.143,0.127,0.293,0.233,0.466,0.326c0.154,0.095,0.327,0.17,0.508,0.225
		c0.176,0.063,0.365,0.106,0.55,0.129c0.746,0.087,1.523-0.121,2.125-0.589c0.143-0.115,0.289-0.25,0.407-0.391
		c0.118-0.135,0.223-0.292,0.321-0.458c0.093-0.166,0.165-0.336,0.225-0.516c0.063-0.178,0.1-0.362,0.118-0.547
		c0.093-0.76-0.117-1.533-0.579-2.123C403.502,258.251,402.555,257.824,401.606,257.905z"/>
	<path fill="#040000" d="M155.292,454.688c-0.187,0.007-0.374,0.044-0.544,0.094c-0.193,0.047-0.366,0.116-0.536,0.196
		c-0.17,0.093-0.325,0.189-0.471,0.31c-0.143,0.11-0.286,0.238-0.408,0.387c-0.126,0.138-0.227,0.291-0.326,0.458
		c-0.094,0.164-0.172,0.335-0.234,0.506c-0.055,0.186-0.094,0.37-0.118,0.557c-0.023,0.188-0.026,0.377-0.016,0.565
		c0.019,0.187,0.047,0.373,0.102,0.554c0.05,0.185,0.119,0.364,0.2,0.529c0.083,0.163,0.19,0.325,0.306,0.475
		c0.114,0.15,0.241,0.287,0.382,0.407c0.145,0.124,0.294,0.231,0.467,0.322c0.156,0.099,0.329,0.174,0.508,0.226
		c0.179,0.065,0.367,0.105,0.554,0.131c0.745,0.084,1.52-0.123,2.122-0.593c0.144-0.113,0.288-0.249,0.409-0.39
		c0.119-0.135,0.223-0.291,0.322-0.458c0.091-0.165,0.165-0.337,0.225-0.519c0.065-0.175,0.096-0.36,0.12-0.543
		c0.089-0.76-0.119-1.534-0.58-2.124C157.192,455.034,156.24,454.608,155.292,454.688z"/>
	<path fill="#040000" d="M156.249,587.377c-0.188,0-0.375,0.044-0.544,0.091c-0.192,0.059-0.366,0.118-0.535,0.197
		c-0.17,0.089-0.327,0.188-0.47,0.313c-0.146,0.104-0.286,0.235-0.41,0.385c-0.124,0.138-0.227,0.292-0.326,0.452
		c-0.093,0.172-0.169,0.342-0.232,0.52c-0.055,0.179-0.096,0.363-0.119,0.55c-0.023,0.188-0.025,0.384-0.015,0.566
		c0.018,0.188,0.045,0.372,0.101,0.553c0.052,0.188,0.12,0.362,0.2,0.526c0.085,0.166,0.192,0.325,0.308,0.479
		c0.114,0.15,0.242,0.282,0.383,0.404c0.144,0.127,0.293,0.234,0.466,0.324c0.154,0.092,0.33,0.177,0.509,0.229
		c0.176,0.06,0.366,0.103,0.551,0.128c0.747,0.089,1.521-0.123,2.12-0.592c0.147-0.111,0.29-0.244,0.412-0.389
		c0.117-0.138,0.22-0.291,0.32-0.459c0.092-0.158,0.165-0.339,0.225-0.519c0.066-0.177,0.098-0.356,0.121-0.544
		c0.09-0.762-0.119-1.535-0.581-2.118C158.148,587.72,157.198,587.293,156.249,587.377z"/>
	<path fill="#040000" d="M274.181,450.201c-0.187,0.006-0.375,0.045-0.548,0.098c-0.194,0.047-0.364,0.114-0.534,0.197
		c-0.166,0.091-0.324,0.189-0.471,0.311c-0.146,0.107-0.285,0.238-0.411,0.384c-0.121,0.136-0.226,0.293-0.324,0.456
		c-0.094,0.165-0.172,0.341-0.231,0.511c-0.056,0.184-0.095,0.366-0.121,0.558c-0.024,0.186-0.026,0.374-0.016,0.564
		c0.017,0.185,0.048,0.371,0.103,0.551c0.051,0.188,0.118,0.364,0.201,0.529c0.084,0.164,0.188,0.325,0.305,0.474
		c0.114,0.149,0.245,0.285,0.385,0.408c0.142,0.125,0.292,0.231,0.467,0.323c0.155,0.098,0.327,0.172,0.506,0.229
		c0.177,0.062,0.367,0.104,0.552,0.13c0.749,0.083,1.521-0.124,2.122-0.593c0.146-0.115,0.289-0.248,0.409-0.392
		c0.119-0.135,0.222-0.291,0.321-0.457c0.094-0.166,0.164-0.339,0.223-0.517c0.067-0.177,0.098-0.359,0.121-0.547
		c0.091-0.759-0.118-1.53-0.583-2.12C276.079,450.549,275.129,450.123,274.181,450.201z"/>
	<path fill="#040000" d="M645.598,559.166c-0.188,0.01-0.378,0.043-0.549,0.09c-0.194,0.058-0.366,0.115-0.533,0.201
		c-0.168,0.089-0.329,0.192-0.474,0.308c-0.141,0.108-0.282,0.241-0.411,0.384c-0.119,0.136-0.223,0.293-0.324,0.463
		c-0.092,0.16-0.167,0.336-0.233,0.506c-0.053,0.192-0.095,0.369-0.113,0.56c-0.027,0.184-0.03,0.38-0.02,0.563
		c0.02,0.195,0.046,0.375,0.1,0.55c0.058,0.188,0.121,0.365,0.201,0.533c0.084,0.157,0.19,0.322,0.306,0.47
		c0.118,0.154,0.243,0.294,0.385,0.407c0.145,0.125,0.293,0.229,0.468,0.325c0.158,0.097,0.329,0.177,0.508,0.225
		c0.175,0.061,0.366,0.106,0.549,0.132c0.751,0.088,1.528-0.118,2.127-0.583c0.142-0.12,0.29-0.25,0.407-0.394
		c0.115-0.141,0.223-0.29,0.321-0.469c0.091-0.159,0.167-0.325,0.225-0.513c0.064-0.177,0.099-0.353,0.122-0.543
		c0.091-0.757-0.118-1.529-0.584-2.123C647.5,559.518,646.543,559.081,645.598,559.166z"/>
	<path fill="#040000" d="M583.764,633.773c-0.188,0.002-0.368,0.044-0.547,0.094c-0.194,0.042-0.361,0.112-0.533,0.193
		c-0.17,0.09-0.323,0.199-0.473,0.313c-0.145,0.113-0.284,0.236-0.41,0.385c-0.121,0.138-0.227,0.292-0.321,0.465
		c-0.098,0.16-0.174,0.333-0.234,0.507c-0.054,0.176-0.097,0.364-0.12,0.551c-0.02,0.19-0.025,0.372-0.014,0.57
		c0.018,0.182,0.05,0.366,0.104,0.547c0.051,0.187,0.118,0.366,0.198,0.529c0.085,0.161,0.189,0.324,0.307,0.475
		c0.116,0.153,0.241,0.278,0.385,0.408c0.146,0.125,0.292,0.227,0.468,0.323c0.153,0.1,0.323,0.165,0.51,0.226
		c0.17,0.064,0.36,0.104,0.549,0.133c0.746,0.085,1.52-0.133,2.121-0.598c0.145-0.107,0.289-0.25,0.409-0.387
		c0.117-0.137,0.222-0.29,0.317-0.455c0.095-0.164,0.166-0.338,0.229-0.519c0.065-0.183,0.097-0.36,0.117-0.548
		c0.095-0.755-0.117-1.529-0.576-2.119C585.66,634.111,584.712,633.694,583.764,633.773z"/>
	<path fill="#040000" d="M485.716,702.338c-0.191,0.013-0.374,0.045-0.548,0.093c-0.192,0.057-0.365,0.115-0.537,0.196
		c-0.166,0.093-0.321,0.192-0.469,0.313c-0.146,0.108-0.284,0.236-0.412,0.385c-0.119,0.137-0.224,0.291-0.322,0.461
		c-0.098,0.16-0.171,0.337-0.231,0.507c-0.056,0.191-0.098,0.368-0.121,0.555c-0.022,0.187-0.025,0.384-0.017,0.566
		c0.019,0.194,0.052,0.369,0.104,0.55c0.05,0.185,0.118,0.365,0.198,0.533c0.087,0.158,0.191,0.321,0.309,0.469
		c0.115,0.156,0.241,0.291,0.386,0.407c0.141,0.127,0.287,0.233,0.465,0.325c0.152,0.099,0.327,0.179,0.505,0.227
		c0.181,0.063,0.368,0.11,0.555,0.131c0.745,0.088,1.523-0.119,2.121-0.587c0.146-0.115,0.29-0.244,0.408-0.393
		c0.119-0.138,0.225-0.291,0.318-0.459c0.099-0.163,0.168-0.336,0.23-0.52c0.064-0.169,0.095-0.356,0.12-0.542
		c0.09-0.757-0.122-1.536-0.583-2.12C487.613,702.684,486.66,702.255,485.716,702.338z"/>
	<path fill="#040000" d="M689.516,418.717c-0.184,0.007-0.374,0.043-0.541,0.093c-0.198,0.047-0.366,0.113-0.538,0.195
		c-0.163,0.093-0.323,0.191-0.468,0.309c-0.152,0.114-0.29,0.242-0.416,0.387c-0.117,0.136-0.221,0.292-0.32,0.46
		c-0.096,0.165-0.168,0.337-0.229,0.506c-0.062,0.188-0.1,0.371-0.123,0.556c-0.025,0.187-0.025,0.379-0.014,0.566
		c0.011,0.187,0.042,0.375,0.099,0.553c0.053,0.188,0.122,0.364,0.202,0.529c0.084,0.162,0.194,0.326,0.305,0.474
		c0.118,0.151,0.244,0.286,0.381,0.406c0.153,0.127,0.294,0.231,0.47,0.323c0.152,0.097,0.327,0.174,0.503,0.227
		c0.183,0.061,0.373,0.105,0.563,0.128c0.743,0.088,1.518-0.12,2.12-0.589c0.141-0.117,0.286-0.25,0.4-0.393
		c0.121-0.138,0.224-0.293,0.327-0.457c0.096-0.165,0.164-0.338,0.229-0.52c0.057-0.173,0.091-0.358,0.117-0.545
		c0.083-0.756-0.122-1.532-0.591-2.122C691.421,419.063,690.468,418.636,689.516,418.717z"/>
	<path fill="#040000" d="M521.897,272.701c-0.189,0.005-0.377,0.043-0.546,0.095c-0.197,0.051-0.364,0.113-0.535,0.196
		c-0.167,0.09-0.322,0.19-0.469,0.313c-0.146,0.109-0.288,0.237-0.411,0.383c-0.123,0.141-0.229,0.292-0.325,0.46
		c-0.096,0.165-0.175,0.339-0.231,0.507c-0.055,0.184-0.097,0.37-0.119,0.555c-0.027,0.191-0.028,0.378-0.016,0.567
		c0.016,0.187,0.05,0.374,0.101,0.551c0.053,0.187,0.117,0.367,0.201,0.529c0.084,0.165,0.188,0.328,0.305,0.478
		c0.113,0.149,0.244,0.284,0.385,0.405c0.146,0.126,0.293,0.23,0.468,0.323c0.153,0.096,0.327,0.172,0.509,0.228
		c0.173,0.061,0.363,0.104,0.551,0.127c0.744,0.087,1.521-0.123,2.122-0.591c0.143-0.114,0.288-0.25,0.41-0.391
		c0.116-0.139,0.219-0.292,0.318-0.457c0.091-0.165,0.164-0.337,0.226-0.519c0.066-0.176,0.099-0.357,0.117-0.546
		c0.093-0.759-0.118-1.532-0.577-2.123C523.797,273.048,522.848,272.621,521.897,272.701z"/>
	<path fill="#040000" d="M440.952,201.842c-0.188,0.006-0.375,0.043-0.545,0.096c-0.196,0.05-0.363,0.113-0.537,0.196
		c-0.166,0.093-0.321,0.189-0.469,0.312c-0.143,0.109-0.286,0.237-0.41,0.386c-0.122,0.137-0.226,0.292-0.325,0.458
		c-0.092,0.165-0.172,0.337-0.229,0.505c-0.06,0.189-0.1,0.373-0.123,0.557c-0.024,0.19-0.028,0.379-0.015,0.568
		c0.017,0.187,0.048,0.373,0.099,0.551c0.058,0.187,0.121,0.365,0.204,0.528c0.085,0.165,0.191,0.328,0.305,0.478
		c0.115,0.149,0.243,0.282,0.385,0.405c0.144,0.126,0.297,0.231,0.468,0.323c0.152,0.096,0.327,0.173,0.505,0.228
		c0.179,0.062,0.365,0.104,0.554,0.129c0.746,0.087,1.521-0.123,2.123-0.592c0.142-0.114,0.291-0.251,0.407-0.392
		c0.117-0.138,0.219-0.291,0.323-0.457c0.092-0.164,0.165-0.336,0.224-0.517c0.066-0.179,0.099-0.359,0.118-0.547
		c0.095-0.759-0.116-1.532-0.581-2.122C442.851,202.187,441.899,201.76,440.952,201.842z"/>
	<path fill="#040000" d="M313.025,211.042c-0.188,0.005-0.374,0.043-0.546,0.093c-0.194,0.048-0.367,0.117-0.539,0.196
		c-0.168,0.091-0.324,0.193-0.47,0.312c-0.146,0.111-0.282,0.238-0.41,0.384c-0.122,0.138-0.228,0.292-0.327,0.46
		c-0.091,0.163-0.168,0.337-0.234,0.506c-0.052,0.186-0.094,0.37-0.118,0.555c-0.025,0.188-0.027,0.379-0.017,0.566
		c0.018,0.189,0.049,0.373,0.102,0.552c0.054,0.188,0.119,0.367,0.201,0.528c0.083,0.165,0.19,0.328,0.304,0.479
		c0.115,0.149,0.246,0.285,0.387,0.405c0.142,0.127,0.295,0.232,0.466,0.326c0.155,0.094,0.327,0.172,0.509,0.224
		c0.174,0.065,0.366,0.106,0.55,0.133c0.748,0.084,1.522-0.125,2.124-0.594c0.143-0.113,0.288-0.25,0.408-0.388
		c0.115-0.137,0.222-0.295,0.321-0.459c0.094-0.162,0.164-0.336,0.225-0.519c0.068-0.174,0.098-0.357,0.121-0.543
		c0.09-0.76-0.119-1.534-0.581-2.122C314.924,211.388,313.974,210.961,313.025,211.042z"/>
	<path fill="#040000" d="M54.809,282.959c-0.184,0.009-0.375,0.044-0.543,0.095c-0.198,0.049-0.366,0.116-0.539,0.198
		c-0.165,0.092-0.326,0.192-0.466,0.311c-0.15,0.11-0.288,0.237-0.415,0.387c-0.119,0.138-0.22,0.292-0.326,0.458
		c-0.093,0.162-0.166,0.336-0.227,0.507c-0.06,0.186-0.099,0.371-0.118,0.557c-0.029,0.186-0.029,0.377-0.015,0.564
		c0.012,0.188,0.043,0.374,0.096,0.553c0.052,0.188,0.124,0.363,0.205,0.529c0.082,0.166,0.192,0.325,0.3,0.476
		c0.12,0.15,0.249,0.284,0.386,0.407c0.149,0.126,0.293,0.231,0.466,0.324c0.155,0.095,0.331,0.17,0.51,0.229
		c0.182,0.061,0.371,0.104,0.556,0.129c0.748,0.086,1.523-0.125,2.122-0.593c0.139-0.113,0.289-0.25,0.403-0.392
		c0.12-0.135,0.225-0.29,0.327-0.456c0.092-0.163,0.165-0.337,0.225-0.518c0.063-0.175,0.092-0.357,0.121-0.546
		c0.083-0.756-0.119-1.532-0.587-2.12C56.71,283.307,55.758,282.877,54.809,282.959z"/>
	<path fill="#040000" d="M369.365,665.699c-0.75-0.102-1.521,0.115-2.124,0.58c-0.591,0.462-0.989,1.165-1.081,1.909
		c-0.021,0.198-0.027,0.383-0.01,0.569c0.006,0.187,0.048,0.365,0.098,0.557c0.049,0.182,0.115,0.358,0.203,0.516
		c0.088,0.176,0.182,0.344,0.297,0.484c0.469,0.6,1.171,0.996,1.917,1.085c0.195,0.026,0.378,0.024,0.567,0.013
		c0.19-0.015,0.374-0.055,0.552-0.106c0.182-0.044,0.361-0.11,0.526-0.196c0.173-0.082,0.331-0.186,0.482-0.301
		c0.146-0.108,0.284-0.248,0.409-0.395c0.119-0.135,0.226-0.291,0.32-0.451c0.087-0.168,0.17-0.347,0.225-0.521
		c0.062-0.177,0.105-0.361,0.125-0.549c0.097-0.746-0.117-1.521-0.586-2.122C370.819,666.186,370.122,665.786,369.365,665.699z"/>
	<path fill="#EBECF6" d="M573.07,442.688l-0.515,10.846l10.847,0.515l0.515-10.841L573.07,442.688z"/>
	<path fill="#99D3CC" fill-opacity="0.32" d="M587.078,425.453c26.052-3.053,44.693-26.642,41.643-52.692
		c-3.054-26.049-26.643-44.691-52.692-41.639c-26.048,3.051-44.69,26.641-41.639,52.69
		C537.44,409.862,561.031,428.504,587.078,425.453z"/>
	<path fill="#70C5DD" d="M594.584,402.026c5.994-0.702,10.285-6.131,9.585-12.123c-0.704-5.994-6.134-10.282-12.128-9.581
		c-5.99,0.702-10.28,6.129-9.578,12.124C583.166,398.437,588.592,402.727,594.584,402.026z"/>
	<path fill="#70C5DD" d="M553.906,357.852c2.511-2.282,6.4-2.1,8.691,0.413c2.289,2.514,2.099,6.407-0.416,8.692
		s-6.406,2.099-8.684-0.414C551.207,364.029,551.396,360.139,553.906,357.852z"/>
	<path fill="#70C5DD" d="M584.589,351.279c5.622-0.658,9.641-5.746,8.983-11.363c-0.657-5.62-5.746-9.641-11.367-8.982
		c-5.618,0.658-9.64,5.746-8.982,11.365C573.881,347.917,578.971,351.938,584.589,351.279z"/>
	<path fill="#70C5DD" d="M538.548,385.664c-1.337,1.213-2.348,2.649-3.05,4.196c1.577,6.3,4.466,12.352,8.689,17.73
		c3.974,0.943,8.337-0.023,11.59-2.982c5.235-4.755,5.609-12.85,0.858-18.083C551.875,381.289,543.781,380.908,538.548,385.664z"/>
	<path fill="#040000" d="M551.179,344.875l0.102-0.089l0.003-0.001c0.943-0.863,1.019-2.334,0.154-3.283
		c-0.863-0.955-2.338-1.026-3.283-0.167l-0.104,0.097c-0.953,0.862-1.024,2.336-0.161,3.286
		C548.76,345.667,550.23,345.736,551.179,344.875z"/>
	<path fill="#040000" d="M602.229,400.98c5.412-4.918,5.81-13.315,0.89-18.723c-4.917-5.405-13.314-5.806-18.718-0.891
		c-5.412,4.918-5.813,13.317-0.896,18.724C588.428,405.496,596.824,405.897,602.229,400.98z M587.528,384.812
		c3.511-3.189,8.961-2.93,12.146,0.577c3.19,3.509,2.934,8.955-0.577,12.145c-3.51,3.192-8.96,2.931-12.15-0.576
		C583.763,393.45,584.023,387.999,587.528,384.812z"/>
	<path fill="#040000" d="M564.319,356.702c-3.146-3.458-8.522-3.719-11.979-0.572c-3.459,3.146-3.712,8.52-0.569,11.98
		c3.146,3.46,8.521,3.716,11.986,0.572C567.21,365.538,567.463,360.161,564.319,356.702z M560.615,365.236
		c-1.559,1.417-3.975,1.304-5.399-0.259c-1.418-1.561-1.303-3.986,0.26-5.401c1.567-1.419,3.983-1.306,5.401,0.254
		C562.298,361.39,562.18,363.815,560.615,365.236z"/>
	<path fill="#040000" d="M606.164,362.649c0.029-0.614-0.193-1.222-0.608-1.676c-0.406-0.453-0.998-0.733-1.612-0.758
		c-0.606-0.029-1.222,0.188-1.673,0.602c-0.456,0.413-0.729,0.997-0.757,1.609c-0.034,0.612,0.188,1.225,0.599,1.681
		c0.419,0.453,1.003,0.727,1.612,0.757c0.617,0.031,1.225-0.191,1.68-0.603C605.857,363.85,606.138,363.262,606.164,362.649z"/>
	<path fill="#040000" d="M562.736,321.152c0.451-0.415,0.731-1.003,0.76-1.609c0.033-0.617-0.193-1.225-0.601-1.678
		c-0.414-0.455-1.001-0.732-1.618-0.757c-0.608-0.032-1.214,0.19-1.67,0.599c-0.453,0.412-0.729,1.002-0.762,1.612
		c-0.026,0.613,0.188,1.223,0.604,1.677c0.412,0.454,0.998,0.729,1.606,0.759C561.675,321.785,562.281,321.563,562.736,321.152z"/>
	<path fill="#040000" d="M615.474,328.018c0.023-0.615-0.194-1.224-0.606-1.681c-0.413-0.45-1.003-0.728-1.612-0.757
		c-0.613-0.03-1.227,0.189-1.678,0.601c-0.456,0.417-0.729,1.003-0.759,1.611c-0.031,0.612,0.192,1.224,0.601,1.677
		c0.409,0.454,1.001,0.729,1.616,0.758c0.609,0.03,1.217-0.188,1.678-0.603C615.161,329.218,615.443,328.626,615.474,328.018z"/>
	<path fill="#040000" d="M570.509,378.561c-0.03,0.611,0.188,1.223,0.603,1.675c0.412,0.452,1,0.732,1.614,0.76
		c0.613,0.025,1.224-0.192,1.675-0.605c0.453-0.412,0.729-0.999,0.76-1.61c0.031-0.614-0.188-1.224-0.6-1.678
		c-0.419-0.449-1.002-0.729-1.613-0.757c-0.616-0.027-1.225,0.19-1.676,0.603C570.818,377.359,570.542,377.948,570.509,378.561z"/>
	<path fill="#040000" d="M615.217,381.323c-0.028,0.61,0.194,1.224,0.606,1.68c0.411,0.451,1.002,0.727,1.61,0.757
		c0.609,0.031,1.226-0.191,1.679-0.603c0.452-0.412,0.729-0.998,0.753-1.606c0.038-0.616-0.186-1.227-0.597-1.678
		c-0.416-0.455-0.998-0.736-1.62-0.759c-0.606-0.029-1.214,0.19-1.675,0.603C615.521,380.124,615.25,380.712,615.217,381.323z"/>
	<path fill="#040000" d="M573.17,440.323c-1.284-0.057-2.373,0.933-2.433,2.215l-0.516,10.843c-0.06,1.283,0.93,2.376,2.216,2.438
		l10.845,0.52c0.641,0.026,1.234-0.207,1.676-0.61c0.437-0.399,0.729-0.963,0.76-1.607l0.513-10.844
		c0.061-1.283-0.926-2.375-2.215-2.435L573.17,440.323z M581.178,451.575l-6.199-0.293l0.291-6.196l6.201,0.295L581.178,451.575z"/>
	<path fill="#EBECF6" d="M494.634,312.134l-0.514,10.845l10.845,0.515l0.513-10.845L494.634,312.134z"/>
	<path fill="#040000" d="M494.726,309.811c-1.286-0.058-2.374,0.932-2.435,2.217l-0.514,10.843c-0.06,1.286,0.926,2.377,2.212,2.437
		l10.848,0.517c0.642,0.03,1.231-0.203,1.673-0.606c0.444-0.4,0.731-0.968,0.763-1.611l0.515-10.846
		c0.058-1.282-0.932-2.373-2.22-2.436L494.726,309.811z M502.729,321.063l-6.194-0.296l0.291-6.194l6.198,0.296L502.729,321.063z"/>
	<path fill="#040000" d="M582.454,310.897l2.418-2.193l2.249,2.479c0.863,0.949,2.336,1.025,3.287,0.157
		c0.949-0.865,1.021-2.339,0.156-3.289l-2.247-2.48l2.409-2.19c0.947-0.866,1.02-2.336,0.15-3.284
		c-0.863-0.957-2.334-1.023-3.283-0.159l-2.414,2.191l-2.249-2.478c-0.872-0.948-2.343-1.018-3.289-0.153
		c-0.954,0.865-1.022,2.335-0.159,3.283l2.259,2.478l-2.419,2.192c-0.95,0.867-1.019,2.34-0.152,3.289
		C580.038,311.691,581.504,311.762,582.454,310.897z"/>
	<path fill="#040000" d="M641.313,357.208c-1.053-0.742-2.501-0.495-3.248,0.558c-0.738,1.046-0.492,2.501,0.559,3.243
		c6.223,4.399,13.554,11.543,13.122,20.616c-0.411,8.634-7.891,16.552-21.048,22.291c-2.661,1.158-5.479,2.198-8.433,3.11
		c5.439-7.674,8.594-16.749,9.047-26.372c0.643-13.289-3.944-26.03-12.891-35.875c-7.729-8.494-18.219-14.089-29.553-15.765
		c-11.171-1.654-22.67,0.553-32.376,6.216c-1.111,0.646-1.481,2.068-0.839,3.183c0.649,1.11,2.078,1.485,3.192,0.836
		c4.49-2.624,9.309-4.375,14.23-5.303c-3.267,4.702-2.984,11.208,1.025,15.617c4.659,5.128,12.627,5.507,17.754,0.846
		c4.386-3.987,5.292-10.38,2.551-15.363c7.725,2.283,14.888,6.616,20.567,12.86c15.898,17.491,15.481,44.155-0.356,61.146
		c-10.544,2.352-22.387,3.308-34.651,2.727c-12.262-0.584-23.961-2.658-34.235-6c-3.65-4.762-6.239-10.1-7.752-15.674
		c1.244-2.276,3.257-3.989,5.725-4.853c2.639-0.927,5.475-0.766,8.005,0.444c2.514,1.218,4.419,3.336,5.34,5.979
		c0.927,2.638,0.769,5.484-0.448,8.006c-0.555,1.157-0.07,2.548,1.092,3.104c0.878,0.424,1.899,0.245,2.575-0.374
		c0.215-0.194,0.396-0.437,0.53-0.712c1.754-3.642,1.981-7.748,0.646-11.564c-1.338-3.812-4.073-6.879-7.722-8.629
		c-3.646-1.751-7.747-1.982-11.56-0.648c-2.039,0.71-3.86,1.828-5.383,3.266c-1.48-11.362,1.346-23.211,8.614-32.897
		c0.774-1.029,0.564-2.489-0.463-3.258c-1.031-0.775-2.49-0.564-3.261,0.464c-12.092,16.122-13.047,37.667-3.343,54.614
		c-2.861-1.195-5.577-2.498-8.117-3.905c-12.558-6.967-19.243-15.558-18.834-24.188c0.413-8.792,8.114-16.807,21.677-22.566
		c1.181-0.501,1.735-1.867,1.229-3.048c-0.496-1.187-1.867-1.736-3.05-1.234c-15.294,6.497-24.001,15.952-24.51,26.626
		c-0.502,10.498,7.042,20.611,21.23,28.482c4.52,2.507,9.56,4.697,14.984,6.541c0.571,0.692,1.155,1.38,1.767,2.048
		c8.948,9.844,21.195,15.617,34.485,16.249c13.292,0.633,26.034-3.949,35.882-12.897c0.669-0.612,1.321-1.239,1.951-1.878
		c5.568-1.315,10.795-3.019,15.535-5.083c6.06-2.645,11.055-5.763,14.882-9.243c5.565-5.059,8.652-10.874,8.95-17.098
		C656.814,372.999,651.597,364.48,641.313,357.208z M589.255,335.785c2.931,3.229,2.695,8.245-0.533,11.179
		c-3.229,2.935-8.244,2.701-11.178-0.53c-2.938-3.23-2.695-8.248,0.53-11.179c1.457-1.325,3.282-1.999,5.104-2.048
		c0.422,0.014,0.84,0.035,1.254,0.063C586.227,333.5,587.945,334.348,589.255,335.785z M551.98,412.41
		c8.665,2.18,18.055,3.555,27.76,4.02c9.713,0.461,19.189-0.018,28.024-1.366C590.856,427.132,567.673,426.031,551.98,412.41z"/>
	<path fill="#040000" d="M630.327,353.419c-0.6,1.138-0.17,2.549,0.976,3.149c0.887,0.475,1.947,0.31,2.654-0.333
		c0.189-0.172,0.358-0.384,0.486-0.626c0.602-1.135,0.175-2.548-0.961-3.152c-0.005-0.001-0.018-0.005-0.026-0.01
		C632.323,351.854,630.929,352.29,630.327,353.419z"/>
	<path fill="#EAC3DB" d="M188.564,523.95c13.81-1.616,23.694-14.125,22.076-27.932c-1.618-13.811-14.125-23.695-27.935-22.078
		c-13.811,1.618-23.694,14.126-22.076,27.938C162.246,515.684,174.754,525.569,188.564,523.95z"/>
	<path fill="#D96D82" d="M195.362,506.575c3.176-0.375,5.449-3.251,5.078-6.425c-0.373-3.177-3.25-5.448-6.425-5.078
		c-3.175,0.373-5.448,3.249-5.076,6.426C189.312,504.672,192.187,506.946,195.362,506.575z"/>
	<path fill="#D96D82" d="M170.978,502.67c1.79-0.21,3.07-1.833,2.861-3.619c-0.21-1.79-1.831-3.068-3.62-2.859
		c-1.79,0.209-3.071,1.83-2.861,3.617C167.567,501.599,169.188,502.88,170.978,502.67z"/>
	<path fill="#D96D82" d="M169.556,481.289c0.618-2.938,3.494-4.819,6.428-4.205c2.939,0.613,4.816,3.493,4.206,6.434
		c-0.613,2.932-3.497,4.813-6.428,4.197C170.821,487.104,168.941,484.223,169.556,481.289z"/>
	<path fill="#D96D82" d="M169.456,515.477c-0.198,0.937-0.185,1.868-0.003,2.749c2.632,2.216,5.754,3.919,9.24,4.915
		c1.999-0.828,3.571-2.598,4.05-4.872c0.772-3.677-1.582-7.273-5.251-8.042C173.819,509.459,170.224,511.813,169.456,515.477z"/>
	<path fill="#040000" d="M162.205,494.032l0.013-0.066v-0.005c0.137-0.663-0.287-1.318-0.947-1.455
		c-0.673-0.145-1.33,0.284-1.464,0.949l-0.019,0.076c-0.142,0.665,0.289,1.319,0.954,1.46
		C161.412,495.127,162.063,494.702,162.205,494.032z"/>
	<path fill="#040000" d="M201.565,502.271c0.798-3.801-1.639-7.529-5.432-8.327c-3.792-0.788-7.525,1.651-8.314,5.437
		c-0.798,3.796,1.638,7.53,5.43,8.32C197.044,508.499,200.778,506.059,201.565,502.271z M190.231,499.891
		c0.516-2.459,2.934-4.044,5.396-3.528c2.459,0.516,4.04,2.934,3.524,5.396c-0.515,2.46-2.932,4.046-5.398,3.528
		C191.295,504.771,189.715,502.348,190.231,499.891z"/>
	<path fill="#040000" d="M171.524,495.029c-2.429-0.507-4.816,1.05-5.324,3.479c-0.51,2.428,1.054,4.812,3.479,5.323
		c2.425,0.505,4.817-1.053,5.324-3.482C175.512,497.928,173.948,495.535,171.524,495.029z M172.583,499.843
		c-0.231,1.094-1.299,1.799-2.402,1.571c-1.095-0.226-1.8-1.3-1.563-2.403c0.229-1.093,1.302-1.796,2.399-1.566
		C172.108,497.672,172.814,498.752,172.583,499.843z"/>
	<path fill="#040000" d="M191.345,484.579c-0.174-0.272-0.462-0.465-0.777-0.531c-0.321-0.066-0.66-0.004-0.931,0.171
		c-0.264,0.18-0.468,0.469-0.533,0.784c-0.065,0.317,0.001,0.653,0.175,0.926c0.179,0.269,0.465,0.467,0.78,0.536
		c0.319,0.06,0.652,0,0.929-0.18c0.271-0.177,0.469-0.461,0.534-0.779C191.584,485.19,191.524,484.848,191.345,484.579z"/>
	<path fill="#040000" d="M180.977,502.494c0.175,0.273,0.466,0.467,0.78,0.532c0.314,0.066,0.656,0.001,0.931-0.176
		c0.269-0.178,0.463-0.461,0.529-0.775c0.065-0.318,0-0.655-0.175-0.931c-0.175-0.272-0.461-0.465-0.779-0.531
		c-0.318-0.063-0.654-0.004-0.927,0.174c-0.269,0.177-0.466,0.465-0.532,0.781C180.731,501.883,180.796,502.224,180.977,502.494z"/>
	<path fill="#040000" d="M201.041,489.786c0.179,0.268,0.464,0.463,0.778,0.529c0.321,0.067,0.656,0.002,0.926-0.173
		c0.274-0.178,0.465-0.463,0.538-0.781c0.057-0.316,0-0.653-0.181-0.925c-0.175-0.276-0.46-0.469-0.773-0.533
		c-0.328-0.063-0.665-0.007-0.938,0.179c-0.268,0.171-0.464,0.459-0.529,0.774C200.796,489.176,200.858,489.516,201.041,489.786z"/>
	<path fill="#040000" d="M204.754,471.317c-0.681,0.006-1.231,0.565-1.226,1.248c0.015,0.68,0.569,1.225,1.252,1.22
		c4.039-0.045,9.409,0.746,12.047,4.776c2.505,3.832,1.753,9.561-2.114,16.117c-0.786,1.327-1.672,2.643-2.654,3.952
		c-0.05-4.983-1.519-9.862-4.312-14.14c-3.86-5.9-9.79-9.952-16.69-11.4c-5.958-1.248-12.203-0.391-17.594,2.412
		c-5.306,2.762-9.56,7.284-11.97,12.731c-0.28,0.625,0.003,1.35,0.625,1.63c0.626,0.274,1.351-0.007,1.628-0.63
		c1.112-2.524,2.64-4.775,4.465-6.706c0.058,3.034,2.198,5.743,5.289,6.393c3.6,0.755,7.139-1.561,7.896-5.157
		c0.636-3.074-0.955-6.104-3.684-7.389c4.03-1.424,8.448-1.79,12.837-0.87c12.261,2.571,20.374,14.15,18.848,26.374
		c-3.798,4.286-8.586,8.376-14.037,11.94c-5.45,3.56-11.121,6.303-16.565,8.06c-3.056-0.913-5.824-2.394-8.204-4.321
		c-0.174-1.361,0.162-2.729,0.95-3.865c0.845-1.215,2.112-2.027,3.574-2.291c1.458-0.263,2.94,0.054,4.153,0.903
		c1.217,0.848,2.038,2.119,2.298,3.576c0.121,0.674,0.756,1.12,1.434,0.997c0.51-0.094,0.886-0.482,0.988-0.963
		c0.032-0.148,0.04-0.309,0.004-0.469c-0.373-2.11-1.552-3.946-3.31-5.169c-1.763-1.221-3.894-1.686-6.003-1.304
		c-2.105,0.38-3.938,1.554-5.16,3.311c-0.657,0.94-1.094,1.979-1.302,3.08c-4.167-4.421-6.633-10.395-6.524-16.816
		c0.013-0.677-0.531-1.243-1.211-1.255c-0.684-0.008-1.247,0.538-1.253,1.216c-0.183,10.682,6.106,20.232,15.535,24.497
		c-1.6,0.38-3.167,0.659-4.695,0.843c-7.561,0.913-13.105-0.691-15.61-4.536c-2.555-3.906-1.74-9.735,2.296-16.43
		c0.353-0.58,0.167-1.343-0.425-1.694c-0.582-0.353-1.34-0.167-1.696,0.427c-4.546,7.537-5.345,14.306-2.251,19.051
		c3.055,4.662,9.437,6.663,17.973,5.634c2.723-0.327,5.57-0.955,8.469-1.847c0.466,0.118,0.925,0.233,1.397,0.335
		c6.905,1.443,13.956,0.119,19.86-3.74c5.907-3.862,9.958-9.792,11.408-16.701c0.099-0.468,0.183-0.933,0.255-1.406
		c1.982-2.299,3.699-4.651,5.093-7.016c1.781-3.017,2.958-5.909,3.518-8.594c0.817-3.903,0.334-7.358-1.469-10.124
		C216.316,473.283,211.431,471.242,204.754,471.317z M175.731,478.292c2.263,0.479,3.722,2.708,3.25,4.971
		c-0.478,2.26-2.702,3.722-4.968,3.246c-2.267-0.474-3.72-2.705-3.248-4.97c0.219-1.02,0.788-1.879,1.557-2.466
		c0.185-0.124,0.371-0.242,0.559-0.363C173.725,478.254,174.724,478.085,175.731,478.292z M183.539,522.791
		c4.4-1.758,8.862-4.086,13.174-6.901c4.309-2.821,8.238-5.973,11.609-9.292C204.811,517.033,194.513,523.764,183.539,522.791z"/>
	<path fill="#040000" d="M198.856,473.102c0.093,0.68,0.717,1.149,1.397,1.05c0.527-0.071,0.934-0.468,1.04-0.963
		c0.024-0.137,0.033-0.278,0.011-0.424c-0.089-0.676-0.718-1.147-1.394-1.054c-0.002,0.003-0.009,0.003-0.009,0.002
		C199.227,471.813,198.761,472.432,198.856,473.102z"/>
	<path fill="#73C5B7" d="M431.738,318.505l0.005-0.045c5.38,0.363,15.207-4.062,19.832-6.674c1.394-1.214,2.66-2.566,3.78-4.031
		c1.422,3.716,2.277,7.623,2.548,11.589c-3.552,3.028-7.645,5.359-12.055,6.878l-0.085-0.037
		c-8.089,3.559-21.871,0.335-27.277-1.217l-0.002,0.013c-2.161-0.965-4.224-2.135-6.162-3.492c-3.027-2.125-2.729-6.701,0.541-8.423
		l0.01-0.005c1.685-0.884,3.728-0.725,5.256,0.408c1.464,1.073,3.018,2.099,4.317,2.675
		C423.916,316.8,428.6,318.208,431.738,318.505z"/>
	<path fill="#8067AB" fill-opacity="0.49" d="M418.486,324.981l0.006-0.014c5.4,1.554,19.188,4.782,27.271,1.219l0.088,0.038
		c4.409-1.52,8.5-3.851,12.052-6.879c0.259,3.788-0.032,7.588-0.865,11.293c-4.338,3.388-15.373,6.202-20.687,7.275l-0.018-0.027
		c-0.957,0.09-6.875,0.194-9.475,0.256c-4.905-0.182-8.473-0.781-9.154-0.965c-2.541-0.702-5.161,0.787-5.868,3.326
		c-0.676,2.457,0.692,5.009,3.106,5.807c0.89,0.287,2.479,0.606,4.548,0.856l-0.007,0.08c4.247,0.141,15.199,0.333,20.22-0.478
		l0.013,0.063c2.659-0.653,9.681-2.461,12.09-3.557c-3.201,5.066-7.51,9.34-12.614,12.487c0,0-11.049-0.958-17.117-1.629
		l-0.081,0.056c-3.034-0.542-5.866-1.267-7.922-2.242c-0.341-0.161-0.721-0.222-1.101-0.176c-0.632,0.079-1.194,0.407-1.589,0.904
		c-0.802,1.018-0.63,2.489,0.385,3.291c0.2,0.16,0.419,0.282,0.657,0.365c5.682,2.044,11.638,3.255,17.676,3.596
		c-20.963,6.557-43.276-5.115-49.833-26.078c-0.66-2.126-1.146-4.301-1.451-6.505l0.124-0.019c0,0,1.157,2.423,3.644,5.952
		c0.877,1.248,2.6,1.544,3.852,0.664c1.244-0.879,1.542-2.599,0.664-3.848c-0.04-0.047-0.073-0.093-0.11-0.139
		c-4.094-5.125-7.986-14.577-7.986-14.577c0.557-3.303,1.538-6.521,2.904-9.577c0.126-0.291,0.257-0.571,0.394-0.852
		c0.13,1.426,0.393,2.834,0.774,4.214l0.06,0.013c1.379,3.948,4.313,11.503,6.069,14.927c0.904,1.759,3.063,2.45,4.812,1.548
		c1.337-0.679,2.093-2.117,1.92-3.596c-0.065-0.555-0.257-1.089-0.572-1.554c-0.59-0.88-4.137-8.416-4.958-10l-0.001-0.002
		c-0.176-0.501-0.337-1.011-0.494-1.517c-0.356-1.178-0.664-2.369-0.918-3.575c-0.653-3.077-0.962-6.214-0.921-9.357h-0.005
		c2.463-2.866,5.321-5.367,8.49-7.415c-0.135,2.176-0.088,4.362,0.162,6.527c0.27,2.792,2.752,4.838,5.543,4.569
		c2.79-0.267,4.84-2.75,4.572-5.542c-0.089-1.072-0.103-5.875-0.133-7.055l0.003-0.063c0.055-1.112,0.232-2.219,0.508-3.296
		c3.048-0.879,6.178-1.391,9.332-1.528c-0.262,1.549-0.335,3.128-0.201,4.693l-0.016,0.047c0.327,1.303,1.28,5.359,1.881,6.554
		c1.01,2.017,3.461,2.84,5.483,1.834c1.897-0.947,2.752-3.182,1.975-5.154c-1.106-2.951-0.563-6.109-0.044-7.27l0.011-0.04
		c6.058,1.161,11.771,3.704,16.687,7.436l-0.026,0.032c-0.656,1.478-4.486,4.118-5.704,5.021c-0.955,0.292-1.964,0.421-2.966,0.389
		c-1.732-0.082-3.304,1.029-3.806,2.687l-0.078,0.26c-0.59,2.002,0.55,4.101,2.558,4.692c0.255,0.079,0.517,0.126,0.779,0.146
		c1.132,0.089,2.267,0.075,3.396-0.045c0.032-0.089,0.065-0.175,0.105-0.258c1.022-2.299,3.718-3.334,6.022-2.313
		c0,0.002,0,0.002,0,0.002c0.255,0.113,0.501,0.25,0.727,0.408c2.157-1.183,4.045-2.783,5.558-4.714
		c2.739,3.33,4.928,7.08,6.468,11.109c-1.119,1.466-2.386,2.817-3.781,4.033c-4.626,2.611-14.453,7.036-19.83,6.674l-0.004,0.043
		c-3.142-0.294-7.824-1.706-9.294-2.359c-1.302-0.576-2.854-1.601-4.316-2.675c-1.531-1.132-3.571-1.292-5.26-0.406l-0.01,0.005
		c-3.269,1.72-3.565,6.294-0.537,8.422C414.263,322.847,416.323,324.016,418.486,324.981z M403.339,350.64
		c0.932-1.185,0.735-2.907-0.447-3.848c-0.063-0.043-0.126-0.087-0.185-0.129c-1.633-1.089-3.154-2.22-4.581-3.371
		c-0.582-0.464-4.065-3.649-4.61-4.124l-0.012,0.018c-1.1-1.047-2.824-1.007-3.866,0.089c-1.032,1.074-1.004,2.776,0.046,3.827
		c1.141,1.135,2.376,2.283,3.702,3.423l0.014,0.014c0.829,0.607,5.386,4.113,6.273,4.696
		C400.859,352.014,402.444,351.756,403.339,350.64z"/>
	<path fill="#73C5B7" d="M426.859,338.142c2.598-0.062,8.518-0.166,9.475-0.257l0.018,0.028c5.313-1.072,16.348-3.888,20.687-7.276
		c-1.01,4.482-2.783,8.755-5.231,12.635c-2.409,1.095-9.434,2.902-12.09,3.555l-0.013-0.062c-5.021,0.81-15.97,0.619-20.22,0.478
		l0.007-0.08c-2.071-0.252-3.658-0.566-4.548-0.857c-2.5-0.826-3.861-3.522-3.036-6.027c0.788-2.415,3.345-3.786,5.798-3.106
		C418.387,337.359,421.955,337.959,426.859,338.142z"/>
	<path fill="#73C5B7" d="M436.595,295.391c1.215-0.905,5.043-3.543,5.7-5.021l0.028-0.032c2.426,1.843,4.627,3.958,6.563,6.308
		c-1.514,1.933-3.403,3.535-5.552,4.714c-0.23-0.16-0.477-0.296-0.735-0.406c-2.297-1.025-4.988,0.003-6.021,2.305
		c0,0.002,0,0.004,0,0.004c-0.038,0.084-0.07,0.17-0.103,0.258c-1.127,0.12-2.264,0.135-3.397,0.045
		c-2.08-0.158-3.637-1.97-3.477-4.053c0.017-0.264,0.065-0.53,0.143-0.785l0.076-0.26c0.509-1.659,2.077-2.771,3.812-2.687
		C434.631,295.813,435.639,295.684,436.595,295.391z"/>
	<path fill="#73C5B7" d="M425.637,282.903l-0.013,0.042c-0.516,1.161-1.063,4.32,0.043,7.269c0.833,2.098-0.199,4.472-2.306,5.299
		c-1.963,0.775-4.206-0.082-5.147-1.979c-0.603-1.195-1.557-5.253-1.883-6.554l0.019-0.048c-0.133-1.561-0.063-3.143,0.198-4.692
		C419.592,282.109,422.637,282.333,425.637,282.903z"/>
	<path fill="#73C5B7" d="M422.075,354.129c6.066,0.673,17.117,1.631,17.117,1.631c-2.837,1.765-5.901,3.162-9.092,4.163
		c-6.038-0.341-11.992-1.551-17.676-3.594c-1.219-0.443-1.848-1.784-1.407-3.005c0.085-0.236,0.2-0.452,0.363-0.654
		c0.393-0.496,0.958-0.823,1.592-0.904c0.375-0.046,0.756,0.015,1.096,0.176c2.056,0.977,4.893,1.699,7.925,2.243L422.075,354.129z"
		/>
	<path fill="#73C5B7" d="M407.215,283.77c-0.278,1.075-0.455,2.185-0.51,3.298l-0.002,0.061c0.029,1.181,0.045,5.983,0.134,7.055
		c0.224,2.799-1.857,5.248-4.655,5.476c-2.738,0.225-5.155-1.772-5.463-4.504c-0.25-2.166-0.296-4.352-0.16-6.524
		C399.853,286.492,403.441,284.854,407.215,283.77z"/>
	<path fill="#73C5B7" d="M393.502,339.187l0.012-0.018c0.547,0.472,4.028,3.659,4.609,4.124c1.425,1.151,2.949,2.282,4.581,3.372
		c1.251,0.854,1.576,2.563,0.715,3.812c-0.832,1.221-2.496,1.559-3.745,0.756c-0.887-0.582-5.446-4.088-6.273-4.695l-0.014-0.014
		c-1.326-1.137-2.562-2.287-3.702-3.423c-1.067-1.065-1.071-2.798-0.004-3.869C390.726,338.178,392.429,338.159,393.502,339.187z"/>
	<path fill="#73C5B7" d="M390.408,310.494c0.819,1.586,4.368,9.122,4.957,10c0.315,0.467,0.507,1,0.572,1.555
		c0.23,1.964-1.176,3.736-3.136,3.966c-1.482,0.173-2.917-0.589-3.595-1.917c-1.759-3.426-4.689-10.983-6.07-14.927l-0.06-0.012
		c-0.382-1.382-0.644-2.792-0.774-4.216c1.512-3.21,3.455-6.206,5.77-8.897l0.004-0.001c-0.04,3.143,0.271,6.281,0.922,9.356
		c0.254,1.207,0.558,2.397,0.918,3.576C390.07,309.48,390.231,309.991,390.408,310.494z"/>
	<path fill="#73C5B7" d="M387.58,331.361c0.178,1.513-0.907,2.887-2.421,3.063c-1.002,0.114-1.991-0.325-2.578-1.153
		c-2.487-3.531-3.644-5.952-3.644-5.952l-0.123,0.018c-0.543-3.975-0.483-8.011,0.185-11.967c0,0,3.894,9.453,7.989,14.579
		C387.319,330.354,387.519,330.841,387.58,331.361z"/>
	<path fill="#E5D856" d="M405.958,312.138c2.941-0.343,5.044-3.006,4.701-5.945c-0.344-2.938-3.007-5.041-5.947-4.696
		c-2.937,0.345-5.04,3.005-4.696,5.943C400.36,310.379,403.021,312.484,405.958,312.138z"/>
	<path fill="#E5D856" d="M401.112,329.376c2.133-0.249,4.072,1.276,4.322,3.417c0.25,2.137-1.28,4.073-3.416,4.323
		c-2.132,0.25-4.073-1.279-4.323-3.417C397.444,331.561,398.98,329.626,401.112,329.376z"/>
	<path fill="#E5D856" d="M441.493,309.937c2.494-0.292,4.277-2.55,3.986-5.045c-0.291-2.493-2.551-4.276-5.045-3.984
		c-2.49,0.291-4.277,2.549-3.983,5.042C436.743,308.444,439.001,310.229,441.493,309.937z"/>
	<path fill="#BC9EC9" d="M393.963,296.17c0.832-0.961,1.696-1.878,2.601-2.746c-0.1-1.599-0.1-3.199-0.004-4.794
		c-3.169,2.049-6.028,4.549-8.489,7.415l0.003-0.001c-0.028,2.664,0.19,5.326,0.651,7.949
		C390.158,301.183,391.917,298.558,393.963,296.17z"/>
	<path fill="#BC9EC9" d="M385.095,314.449c-0.763-1.984-1.458-3.864-1.959-5.279l-0.06-0.012c-0.382-1.382-0.644-2.792-0.774-4.216
		c-0.137,0.28-0.267,0.562-0.394,0.852c-1.369,3.057-2.344,6.274-2.905,9.576c0,0,2.496,6.062,5.599,11.108
		c-0.409-3.654-0.312-7.353,0.302-10.98C384.958,315.146,385.028,314.797,385.095,314.449z"/>
	<path fill="#BC9EC9" d="M386.206,334.081c-1.234,0.707-2.806,0.357-3.625-0.807c-2.487-3.532-3.643-5.954-3.643-5.954l-0.124,0.019
		c2.797,20.486,20.825,35.416,41.474,34.351C404.428,360.136,391.014,349.279,386.206,334.081z"/>
	<path fill="#BC9EC9" d="M416.42,283.09c0.036-0.284,0.079-0.563,0.128-0.851c-3.156,0.138-6.287,0.651-9.332,1.529
		c-0.216,0.835-0.366,1.693-0.454,2.559c2.047-0.993,4.179-1.811,6.356-2.44C414.205,283.58,415.311,283.314,416.42,283.09z"/>
	<path fill="#99D3CC" d="M383.136,309.17c0.498,1.415,1.193,3.295,1.959,5.279c0.582-2.936,1.489-5.799,2.708-8.531
		c0.127-0.285,0.258-0.569,0.396-0.848c0.166-0.366,0.348-0.724,0.527-1.078c-0.461-2.622-0.679-5.284-0.651-7.948l-0.004,0.001
		c-2.315,2.692-4.257,5.687-5.77,8.897c0.13,1.426,0.393,2.834,0.774,4.216L383.136,309.17z"/>
	<path fill="#99D3CC" d="M396.563,293.425c3.012-2.889,6.449-5.277,10.195-7.094c0.088-0.866,0.237-1.727,0.455-2.561
		c-3.773,1.084-7.364,2.722-10.654,4.86C396.464,290.226,396.464,291.826,396.563,293.425z"/>
	<path fill="#99D3CC" d="M386.206,334.081c-0.683-2.162-1.188-4.372-1.487-6.618c-0.043-0.329-0.082-0.656-0.12-0.985
		c-3.101-5.046-5.598-11.108-5.598-11.108c-0.667,3.955-0.725,7.991-0.187,11.967l0.124-0.018c0,0,1.156,2.421,3.645,5.952
		C383.399,334.438,384.972,334.788,386.206,334.081z"/>
	<path fill="#040000" d="M438.496,310.178c2.439,1.091,5.313,0.277,6.826-1.935c0.3-0.441,0.184-1.048-0.252-1.353
		c-0.446-0.308-1.053-0.192-1.358,0.252c0,0,0,0-0.003,0.001c-0.98,1.436-2.842,1.958-4.425,1.25
		c-0.485-0.218-1.062,0.002-1.286,0.494C437.783,309.382,438.003,309.957,438.496,310.178z"/>
	<path fill="#040000" d="M446.607,314.114c-4.496,2.55-9.641,3.727-14.799,3.381c-0.53-0.037-0.993,0.366-1.042,0.905
		c-0.027,0.534,0.374,1,0.912,1.037c5.534,0.374,11.063-0.887,15.889-3.625c0.47-0.264,0.629-0.859,0.365-1.327
		C447.668,314.013,447.074,313.853,446.607,314.114z"/>
	<path fill="#040000" d="M409.259,317.073c-0.137,2.057,0.813,4.034,2.505,5.212c2.016,1.417,4.165,2.631,6.42,3.627
		c0.486,0.222,1.062,0.002,1.281-0.492c0.222-0.493,0-1.066-0.493-1.286c-2.133-0.953-4.176-2.105-6.089-3.444
		c-1.793-1.271-2.216-3.752-0.954-5.546c1.274-1.793,3.753-2.22,5.546-0.95c0.033,0.019,0.054,0.037,0.076,0.057
		c1.786,1.311,3.298,2.249,4.5,2.782c1.502,0.671,3.063,1.209,4.663,1.612c0.521,0.132,1.047-0.178,1.182-0.701
		c0.133-0.521-0.182-1.046-0.704-1.186c0,0-0.006,0.001-0.01,0.001c-1.484-0.378-2.937-0.88-4.337-1.503
		c-1.072-0.48-2.464-1.344-4.13-2.571c-1.841-1.348-4.287-1.534-6.303-0.48C410.58,313.16,409.381,315.012,409.259,317.073z"/>
	<path fill="#040000" d="M439.594,326.803c-5.273,0.878-10.69,0.566-15.83-0.923c-0.521-0.149-1.062,0.151-1.207,0.668
		c-0.151,0.517,0.15,1.059,0.662,1.203c4.833,1.396,9.896,1.813,14.888,1.225c0.601-0.071,1.207-0.154,1.802-0.257
		c0.537-0.084,0.897-0.589,0.809-1.122C440.625,327.073,440.129,326.715,439.594,326.803z"/>
	<path fill="#040000" d="M403.671,310.747c-2.191-0.979-3.176-3.549-2.202-5.746c0.208-0.494-0.019-1.067-0.512-1.28
		c-0.48-0.203-1.043,0.008-1.263,0.486c-1.418,3.179,0.008,6.901,3.188,8.316c0.489,0.224,1.061,0.009,1.29-0.482
		c0.222-0.488,0.011-1.066-0.479-1.291C403.682,310.75,403.681,310.748,403.671,310.747z"/>
	<path fill="#040000" d="M407.217,302.797c2.195,0.982,3.177,3.558,2.196,5.75c-0.205,0.456-0.488,0.875-0.836,1.241
		c-0.367,0.387-0.351,1,0.038,1.372c0.384,0.369,0.994,0.36,1.367-0.022c2.412-2.513,2.332-6.502-0.181-8.91
		c-0.523-0.506-1.129-0.91-1.794-1.208c-0.498-0.217-1.071,0.009-1.29,0.505C406.513,302.012,406.732,302.577,407.217,302.797z"/>
	<path fill="#040000" d="M392.255,327.018c0.23,0.002,0.453-0.004,0.687-0.032c1.403-0.162,2.656-0.984,3.369-2.212
		c0.881-1.5,0.831-3.369-0.134-4.818c-0.607-0.899-1.182-1.836-1.71-2.783c-0.281-0.462-0.873-0.614-1.335-0.338
		c-0.453,0.267-0.605,0.834-0.365,1.295c0.559,0.989,1.161,1.967,1.794,2.91c0.548,0.831,0.57,1.896,0.069,2.749
		c-0.728,1.237-2.323,1.65-3.56,0.924c-0.427-0.251-0.772-0.616-0.998-1.058c-2.164-4.216-3.849-8.042-5.014-11.369
		c-0.17-0.512-0.723-0.778-1.229-0.608c-0.513,0.173-0.783,0.726-0.614,1.234c0,0.007,0.006,0.011,0.007,0.019
		c1.197,3.408,2.913,7.318,5.113,11.612C389.084,326.026,390.592,326.978,392.255,327.018z"/>
	<path fill="#040000" d="M436.423,338.853l0.026-0.003c0.529-0.054,0.923-0.535,0.86-1.067c-0.06-0.536-0.536-0.926-1.069-0.87
		c-1.085,0.107-2.198,0.181-3.322,0.236c-0.54,0.021-0.959,0.478-0.93,1.017c0.024,0.533,0.476,0.953,1.02,0.929
		C434.164,339.04,435.313,338.962,436.423,338.853z"/>
	<path fill="#040000" d="M428.193,338.183c0.012-0.535-0.412-0.988-0.95-1.006c-5.021-0.163-8.688-0.782-9.276-0.948
		c-2.907-0.784-5.925,0.789-6.937,3.62c-1.064,2.992,0.498,6.271,3.486,7.336c0.036,0.017,0.085,0.028,0.13,0.039
		c1.017,0.337,2.691,0.659,4.727,0.907c0.533,0.063,1.021-0.313,1.088-0.85c0.064-0.536-0.319-1.018-0.851-1.086
		c-1.882-0.226-3.472-0.526-4.355-0.819c-1.996-0.654-3.08-2.804-2.427-4.796c0.018-0.027,0.019-0.052,0.034-0.077
		c0.671-1.871,2.672-2.911,4.585-2.392c0.777,0.213,4.517,0.847,9.734,1.017C427.72,339.145,428.168,338.718,428.193,338.183z"/>
	<path fill="#040000" d="M439.55,345.808c-4.652,0.716-9.365,0.996-14.072,0.834c-0.536-0.019-0.984,0.4-1.008,0.938
		c-0.014,0.536,0.404,0.986,0.946,1.004c3.867,0.133,7.747-0.022,11.604-0.46c0.932-0.108,1.881-0.237,2.839-0.394
		c0.534-0.078,0.901-0.578,0.82-1.106c-0.081-0.533-0.573-0.899-1.102-0.819C439.561,345.804,439.558,345.805,439.55,345.808z"/>
	<path fill="#040000" d="M399.989,328.929c-1.833,0.698-3.021,2.474-2.979,4.43c0.018,0.542,0.459,0.963,1,0.954
		c0.031-0.003,0.059-0.002,0.098-0.007c0.499-0.06,0.866-0.487,0.856-0.991c-0.035-1.48,1.137-2.704,2.609-2.741
		c1.139-0.022,2.161,0.669,2.57,1.726c0.188,0.502,0.747,0.757,1.256,0.566c0.498-0.193,0.75-0.754,0.559-1.253
		c0-0.001,0-0.003,0-0.003C405.046,329.219,402.38,328.022,399.989,328.929z"/>
	<path fill="#040000" d="M402.588,335.752c-0.971,0.363-2.06,0.144-2.804-0.572c-0.394-0.373-1.008-0.353-1.378,0.032
		c-0.368,0.386-0.358,0.998,0.025,1.37c1.001,0.959,2.38,1.42,3.751,1.258c0.383-0.043,0.75-0.135,1.102-0.269
		c0.503-0.196,0.75-0.765,0.556-1.265c-0.2-0.491-0.754-0.737-1.247-0.554H402.588z"/>
	<path fill="#040000" d="M391.379,337.465c-2.045,0.135-3.589,1.896-3.459,3.94c0.053,0.902,0.438,1.75,1.075,2.387
		c1.212,1.204,2.473,2.371,3.764,3.471c0.414,0.344,1.026,0.3,1.375-0.113c0.346-0.407,0.303-1.022-0.108-1.37
		c-1.253-1.066-2.479-2.199-3.652-3.37c-0.69-0.688-0.688-1.806,0.005-2.49c0.674-0.682,1.787-0.686,2.47-0.011
		c0.397,0.369,1.008,0.347,1.382-0.045c0.353-0.382,0.346-0.976-0.018-1.346C393.464,337.781,392.425,337.402,391.379,337.465z"/>
	<path fill="#040000" d="M403.246,345.854c-1.537-1.03-3.057-2.147-4.51-3.323c-0.558-0.445-1.11-0.912-1.66-1.383
		c-0.404-0.354-1.02-0.31-1.37,0.096c-0.358,0.408-0.313,1.021,0.095,1.377c0.563,0.484,1.14,0.966,1.716,1.429
		c1.503,1.21,3.065,2.361,4.651,3.42c0.813,0.546,1.033,1.64,0.487,2.452c-0.029,0.041-0.057,0.076-0.087,0.112
		c-0.563,0.724-1.59,0.89-2.357,0.385c-0.85-0.56-1.705-1.148-2.535-1.754c-0.432-0.323-1.036-0.223-1.362,0.208
		c-0.309,0.435-0.215,1.042,0.218,1.362c0.855,0.624,1.73,1.234,2.617,1.812c1.704,1.135,4.013,0.664,5.149-1.046
		C405.425,349.292,404.959,346.987,403.246,345.854z"/>
	<path fill="#040000" d="M434.804,284.767c-20.556-9.154-44.635,0.079-53.789,20.63c-4.399,9.873-4.694,21.079-0.832,31.167
		c6.671,17.36,24.233,28.01,42.711,25.899c3.397-0.401,6.732-1.225,9.917-2.45c21.001-8.059,31.502-31.614,23.441-52.623
		C452.392,297.3,444.673,289.163,434.804,284.767z M379.736,326.937c-0.341-2.639-0.409-5.31-0.207-7.965
		c1.509,3.262,4.044,8.263,6.701,11.587c0.384,0.472,0.492,1.102,0.305,1.671c-0.299,0.941-1.307,1.457-2.252,1.15
		c-0.365-0.115-0.685-0.351-0.907-0.667c-2.385-3.392-3.542-5.763-3.559-5.813L379.736,326.937z M456.909,318.913
		c-3.37,2.803-7.226,4.964-11.381,6.39c-0.507,0.173-0.774,0.73-0.603,1.237c0.172,0.51,0.73,0.776,1.237,0.607
		c3.912-1.346,7.587-3.318,10.864-5.836c0.054,2.946-0.239,5.885-0.856,8.768c-3.685,2.819-8.464,4.842-14.217,6.001
		c-0.526,0.108-0.872,0.619-0.77,1.147c0.104,0.498,0.57,0.834,1.075,0.776c0.025-0.003,0.053-0.006,0.08-0.012
		c5.1-1.029,9.489-2.712,13.086-5.012c-0.994,3.349-2.435,6.552-4.284,9.522c-2.316,1.018-4.725,1.827-7.186,2.417
		c-0.523,0.127-0.84,0.656-0.712,1.176c0.106,0.477,0.565,0.795,1.058,0.738c0.038-0.004,0.08-0.013,0.122-0.02
		c1.606-0.393,3.188-0.864,4.745-1.422c-2.803,3.724-6.272,6.912-10.22,9.393c-1.166-0.027-5.888-0.176-11.084-0.747
		c-0.534-0.058-1.013,0.337-1.063,0.871c-0.056,0.527,0.321,1.002,0.852,1.063c3.047,0.341,5.937,0.529,8.063,0.635
		c-1.17,0.587-2.37,1.118-3.599,1.588c-0.7,0.268-1.415,0.52-2.131,0.749c-5.883-0.353-11.678-1.542-17.232-3.525
		c-0.711-0.259-1.078-1.045-0.821-1.755c0.051-0.138,0.125-0.266,0.216-0.381c0.376-0.486,1.031-0.682,1.509-0.455
		c1.937,0.913,4.677,1.695,8.17,2.32c0.529,0.093,1.034-0.262,1.131-0.788c0.097-0.528-0.259-1.032-0.786-1.129
		c-3.325-0.592-5.904-1.323-7.68-2.167c-1.29-0.618-2.922-0.191-3.871,1.005c-1.134,1.438-0.89,3.524,0.541,4.662
		c0.282,0.222,0.593,0.394,0.934,0.518c4.048,1.451,8.244,2.455,12.505,2.999c-0.645,0.109-1.277,0.201-1.925,0.276
		c-17.595,2.013-34.317-8.128-40.667-24.655c-0.422-1.096-0.784-2.203-1.104-3.322c0.269,0.408,0.567,0.838,0.88,1.287
		c0.786,1.121,2.125,1.719,3.484,1.554c0.047-0.005,0.082-0.009,0.127-0.015c2.038-0.308,3.444-2.208,3.141-4.252
		c-0.101-0.648-0.368-1.264-0.783-1.781c-3.6-4.503-7.104-12.583-7.746-14.095c0.417-2.328,1.045-4.619,1.88-6.834
		c0.074,0.323,0.154,0.655,0.245,0.993c0.12,0.468,0.572,0.775,1.052,0.722c0.047-0.006,0.091-0.016,0.141-0.031
		c0.519-0.133,0.83-0.663,0.695-1.189c-0.348-1.24-0.582-2.509-0.729-3.792c1.08-2.249,2.375-4.384,3.861-6.387
		c0.116,2.312,0.41,4.612,0.89,6.875c0.262,1.221,0.574,2.449,0.942,3.65c0.308,1.038,0.668,2.077,1.056,3.09
		c0.2,0.498,0.758,0.75,1.264,0.557c0.495-0.192,0.752-0.755,0.551-1.257c-0.363-0.966-0.709-1.963-1.009-2.955
		c-0.344-1.144-0.646-2.319-0.895-3.491c-0.61-2.892-0.911-5.849-0.904-8.806c1.93-2.201,4.097-4.17,6.471-5.881
		c-0.022,1.588,0.059,3.176,0.24,4.752c0.214,1.963,1.379,3.697,3.116,4.645c1.091,0.6,2.341,0.85,3.578,0.706
		c0.705-0.082,1.387-0.285,2.01-0.601c2.225-1.089,3.558-3.441,3.345-5.915c-0.1-1.178-0.163-2.311-0.203-3.36
		c-0.005-0.542-0.45-0.966-0.993-0.948c-0.536,0.016-0.961,0.46-0.95,1c0.035,1.086,0.1,2.254,0.202,3.471
		c0.193,2.263-1.481,4.25-3.746,4.445c-2.219,0.191-4.198-1.435-4.439-3.659c-0.215-1.952-0.274-3.918-0.176-5.876
		c2.161-1.358,4.449-2.501,6.829-3.413c0.521-0.199,1.061-0.387,1.595-0.57c-0.084,0.559-0.155,1.164-0.198,1.811
		c-0.045,0.538,0.362,1.002,0.896,1.039c0.539,0.04,1.008-0.364,1.041-0.9c0.058-0.87,0.172-1.735,0.362-2.589
		c1.877-0.517,3.802-0.893,5.744-1.12c0.545-0.064,1.093-0.12,1.644-0.154c-0.14,1.243-0.146,2.497-0.041,3.743
		c0.045,0.533,0.517,0.934,1.051,0.885c0.013-0.002,0.023-0.003,0.034-0.004c0.526-0.062,0.902-0.527,0.856-1.051
		c-0.108-1.223-0.077-2.452,0.076-3.672c2.331-0.05,4.673,0.112,6.977,0.489c-0.416,1.698-0.564,4.367,0.389,6.888
		c0.582,1.5-0.063,3.2-1.49,3.938c-1.538,0.77-3.408,0.155-4.181-1.381c-0.002-0.002-0.002-0.005-0.005-0.009
		c-0.566-1.134-1.011-2.331-1.319-3.562c-0.119-0.523-0.642-0.851-1.167-0.733c-0.518,0.12-0.853,0.647-0.728,1.174
		c0.002,0.008,0.002,0.02,0.008,0.032c0.341,1.369,0.831,2.698,1.461,3.96c1.241,2.497,4.271,3.515,6.766,2.279
		c0.017-0.005,0.029-0.015,0.041-0.021c2.32-1.183,3.37-3.929,2.44-6.356c-0.841-2.219-0.627-4.564-0.305-5.841
		c5.338,1.146,10.374,3.394,14.798,6.596c-0.557,1-1.314,1.873-2.231,2.561c-0.43,0.321-0.52,0.931-0.19,1.359
		c0.314,0.432,0.922,0.521,1.356,0.2c1.062-0.794,1.95-1.786,2.626-2.926c1.804,1.456,3.474,3.071,4.987,4.828
		c-1.224,1.419-2.668,2.628-4.281,3.587c-0.111-0.062-0.226-0.116-0.342-0.167c-2.693-1.2-5.846-0.083-7.187,2.536
		c-0.887,0.065-1.772,0.067-2.664-0.003c-0.847-0.063-1.619-0.516-2.103-1.218c-0.482-0.694-0.616-1.565-0.378-2.37l0.083-0.258
		c0.375-1.235,1.549-2.057,2.837-1.995c1.119,0.041,2.233-0.106,3.301-0.431c0.512-0.157,0.805-0.701,0.652-1.214
		c-0.159-0.516-0.704-0.803-1.22-0.652c-0.86,0.264-1.759,0.381-2.661,0.35c-2.175-0.092-4.143,1.302-4.777,3.386l-0.068,0.256
		c-0.749,2.517,0.69,5.162,3.203,5.908c0.324,0.096,0.653,0.156,0.984,0.182c0.743,0.06,1.484,0.076,2.227,0.05
		c-0.1,1.073,0.112,2.16,0.618,3.116c0.244,0.48,0.831,0.667,1.31,0.425c0.479-0.245,0.669-0.832,0.429-1.312
		c-0.002-0.008-0.009-0.013-0.013-0.022c-0.474-0.89-0.556-1.936-0.2-2.887c0.007-0.035,0.023-0.071,0.04-0.114
		c0.017-0.046,0.038-0.091,0.049-0.135c0.811-1.813,2.932-2.625,4.747-1.819c0.86,0.389,1.54,1.104,1.885,1.992
		c0.203,0.501,0.768,0.75,1.267,0.556c0.494-0.197,0.743-0.756,0.556-1.253c-0.223-0.592-0.545-1.136-0.952-1.618
		c1.453-0.919,2.773-2.046,3.916-3.333c2.215,2.871,4.025,6.037,5.365,9.41c-1.011,1.27-2.135,2.438-3.362,3.5
		c-0.408,0.348-0.461,0.961-0.108,1.371c0.347,0.411,0.964,0.461,1.373,0.118c0.005-0.007,0.005-0.011,0.016-0.015
		c1.019-0.885,1.977-1.841,2.858-2.861C456.018,312.688,456.649,315.779,456.909,318.913z"/>
	<path fill="#EAEA6D" d="M218.029,276.09c-2.98,3.779-2.337,9.258,1.434,12.244c3.781,2.986,9.263,2.346,12.246-1.434
		c2.996-3.778,2.354-9.257-1.435-12.245C226.498,271.67,221.018,272.313,218.029,276.09z"/>
	<path fill="#EAEA6D" d="M176.867,350.335c8.29-0.971,14.221-8.479,13.25-16.769c-0.971-8.29-8.478-14.223-16.767-13.251
		c-8.291,0.971-14.222,8.478-13.251,16.769C161.071,345.373,168.578,351.306,176.867,350.335z"/>
	<path fill="#EAEA6D" d="M177.535,373.773c4.786-0.561,9.125,2.866,9.685,7.646c0.56,4.78-2.87,9.114-7.656,9.674
		c-4.776,0.56-9.103-2.865-9.663-7.645C169.341,378.668,172.759,374.333,177.535,373.773z"/>
	<path fill="#EAEA6D" d="M227.151,420.193c10.84-1.27,18.598-11.087,17.329-21.927c-1.271-10.838-11.087-18.596-21.927-17.326
		c-10.84,1.269-18.598,11.085-17.329,21.925C206.496,413.705,216.312,421.463,227.151,420.193z"/>
	
		<linearGradient id="SVGID_1_" gradientUnits="userSpaceOnUse" x1="243.0337" y1="417.9536" x2="243.0337" y2="229.2959" gradientTransform="matrix(0.9932 -0.1164 0.1164 0.9932 -47.1494 50.7178)">
		<stop  offset="0" style="stop-color:#4ABFDD"/>
		<stop  offset="0.2979" style="stop-color:#61C1C4"/>
		<stop  offset="1" style="stop-color:#7CC6A5"/>
	</linearGradient>
	<path fill="url(#SVGID_1_)" d="M212.604,416.066c-8.567-6.76-10.023-19.189-3.251-27.754c6.76-8.564,19.191-10.021,27.749-3.25
		c8.571,6.764,10.027,19.194,3.251,27.753C233.591,421.378,221.161,422.834,212.604,416.066z M225.319,339.922
		c-23.577-22.312-32.566-56.321-22.67-87.604c-17.06,5.663-32.71,16.201-44.687,31.349
		c-32.635,41.303-25.613,101.245,15.685,133.887c41.308,32.641,101.246,25.618,133.891-15.685
		c11.979-15.152,18.615-32.812,20.182-50.714c-8.213,4.919-17.021,8.326-26.049,10.244c1.084,4.379,0.204,9.198-2.812,13.009
		c-5.18,6.552-14.677,7.665-21.227,2.486c-4.51-3.555-6.437-9.17-5.525-14.454c-9.761-1.366-19.326-4.426-28.213-9.161
		c-0.367,0.766-0.826,1.508-1.375,2.201c-3.982,5.039-11.29,5.895-16.329,1.914c-5.038-3.979-5.895-11.292-1.913-16.328
		C224.6,340.662,224.948,340.273,225.319,339.922z M184.477,323.468c6.549,5.173,7.662,14.675,2.486,21.226
		c-5.174,6.547-14.676,7.66-21.224,2.486c-6.55-5.176-7.663-14.679-2.487-21.226C168.427,319.406,177.93,318.293,184.477,323.468z
		 M183.957,375.59c3.777,2.989,4.419,8.472,1.435,12.248c-2.981,3.778-8.466,4.42-12.244,1.435
		c-3.773-2.981-4.416-8.466-1.435-12.248C174.699,373.25,180.184,372.606,183.957,375.59z"/>
	<path fill="#99D3CC" d="M202.648,252.318c-9.897,31.285-0.909,65.292,22.67,87.604c4.118-3.997,10.667-4.424,15.291-0.765
		c4.338,3.434,5.577,9.338,3.288,14.125c8.885,4.733,18.451,7.797,28.213,9.162c0.42-2.399,1.425-4.728,3.038-6.772
		c5.176-6.545,14.673-7.657,21.227-2.486c2.729,2.16,4.519,5.076,5.298,8.217c9.027-1.92,17.838-5.326,26.048-10.243
		c2.697-30.892-9.711-62.507-35.865-83.175C265.701,247.32,232.086,242.546,202.648,252.318z M231.708,286.899
		c-2.983,3.78-8.464,4.421-12.246,1.434c-3.771-2.985-4.414-8.465-1.434-12.244c2.989-3.776,8.469-4.418,12.245-1.435
		C234.062,277.639,234.704,283.121,231.708,286.899z"/>
	<path fill="#EAEA6D" d="M240.609,339.156c-4.631-3.66-11.173-3.232-15.291,0.765c-0.371,0.351-0.718,0.738-1.039,1.148
		c-3.983,5.036-3.126,12.348,1.913,16.327c5.031,3.983,12.347,3.126,16.329-1.913c0.547-0.695,1.01-1.436,1.376-2.202
		C246.184,348.493,244.947,342.589,240.609,339.156z"/>
	<path fill="#EAEA6D" d="M275.149,355.671c-1.613,2.041-2.621,4.372-3.038,6.77c-0.911,5.284,1.016,10.899,5.525,14.455
		c6.549,5.178,16.044,4.066,21.225-2.486c3.014-3.812,3.896-8.63,2.812-13.01c-0.776-3.138-2.567-6.055-5.298-8.216
		C289.822,348.013,280.325,349.125,275.149,355.671z"/>
	<path fill="#040000" d="M292.034,265.207c-20.794-16.429-46.735-23.778-73.042-20.696c-26.32,3.083-49.858,16.229-66.286,37.019
		c-16.435,20.787-23.781,46.729-20.699,73.046c3.083,26.316,16.226,49.855,37.021,66.285c20.791,16.427,46.728,23.776,73.048,20.692
		c26.308-3.082,49.847-16.227,66.281-37.015c16.419-20.789,23.777-46.727,20.694-73.044
		C325.967,305.175,312.814,281.635,292.034,265.207z M302.276,399.73c-31.27,39.559-88.885,46.309-128.445,15.047
		c-39.563-31.263-46.314-88.884-15.047-128.444c9.829-12.442,22.264-21.635,35.935-27.424c-2.451,10.926-2.815,22.072-1.058,33.226
		c0.323,2.063,2.223,3.487,4.279,3.247c0.052-0.005,0.097-0.012,0.156-0.023c2.116-0.334,3.556-2.319,3.223-4.432
		c-1.87-11.856-1.124-23.701,2.212-35.229c5.342-1.641,10.815-2.801,16.363-3.452c23.25-2.723,47.545,3.404,67.333,19.037
		c24.482,19.355,36.398,48.811,34.501,77.829c-6.25,3.534-12.908,6.214-19.838,7.99c-1.208-2.538-2.999-4.84-5.35-6.695
		c-8.205-6.494-20.177-5.091-26.667,3.124c-1.178,1.493-2.087,3.107-2.759,4.793c-7.212-1.314-14.16-3.572-20.757-6.752
		c1.104-5.533-0.859-11.465-5.581-15.189c-5.106-4.042-11.987-4.336-17.315-1.285c-3.927-4.021-7.439-8.443-10.445-13.184
		c-1.154-1.809-3.545-2.343-5.349-1.194c-1.802,1.146-2.339,3.54-1.196,5.348c3.305,5.194,7.148,10.041,11.441,14.442
		c-3.993,6.585-2.556,15.295,3.643,20.191c3.354,2.647,7.472,3.687,11.411,3.225c3.781-0.443,7.4-2.27,10.027-5.375
		c7.242,3.497,14.893,5.979,22.814,7.411c0.189,5.378,2.638,10.648,7.19,14.24c4.103,3.246,9.15,4.518,13.974,3.952
		c4.838-0.566,9.447-2.972,12.694-7.076c2.906-3.678,4.22-8.102,4.06-12.449c5.844-1.487,11.503-3.561,16.917-6.197
		C318.171,373.063,312.105,387.289,302.276,399.73z M275.959,358.339c1.925-2.436,4.65-3.857,7.514-4.193
		c2.852-0.333,5.836,0.419,8.268,2.344c4.856,3.838,5.686,10.921,1.849,15.781c-3.837,4.859-10.923,5.689-15.782,1.849
		C272.949,370.279,272.118,363.196,275.959,358.339z M225.092,343.729c1.322-1.671,3.206-2.657,5.188-2.889
		c1.967-0.229,4.025,0.293,5.701,1.614c3.351,2.654,3.922,7.534,1.276,10.885c-2.652,3.355-7.529,3.927-10.887,1.275
		C223.014,351.967,222.441,347.086,225.092,343.729z"/>
	<path fill="#040000" d="M184.649,320.69c-8.202-6.495-20.177-5.091-26.665,3.123c-6.489,8.215-5.087,20.179,3.124,26.665
		c4.106,3.247,9.155,4.521,13.981,3.956c4.829-0.566,9.443-2.967,12.683-7.08C194.269,339.145,192.868,327.179,184.649,320.69z
		 M181.699,342.55c-3.837,4.863-10.925,5.693-15.791,1.85c-4.853-3.839-5.683-10.922-1.849-15.781
		c1.934-2.434,4.659-3.854,7.516-4.188c2.852-0.333,5.838,0.418,8.274,2.338C184.709,330.608,185.539,337.69,181.699,342.55z"/>
	<path fill="#040000" d="M219.875,377.349c-6.27,0.735-11.875,3.868-15.794,8.821c-3.911,4.954-5.666,11.135-4.931,17.407
		c0.735,6.269,3.867,11.879,8.819,15.792c4.959,3.919,11.136,5.667,17.406,4.932c2.125-0.249,3.65-2.174,3.401-4.298
		c-0.25-2.13-2.177-3.646-4.302-3.397c-4.214,0.494-8.371-0.685-11.698-3.315c-3.323-2.63-5.428-6.401-5.921-10.614
		c-0.494-4.21,0.683-8.368,3.308-11.695c2.63-3.33,6.401-5.436,10.615-5.929c4.217-0.494,8.377,0.686,11.7,3.316
		c6.869,5.429,8.043,15.441,2.613,22.312c-1.323,1.68-1.037,4.117,0.638,5.444c1.68,1.325,4.112,1.04,5.448-0.639
		c8.079-10.225,6.335-25.119-3.889-33.201C232.324,378.367,226.146,376.614,219.875,377.349z"/>
	<path fill="#040000" d="M184.143,372.814c-5.459-4.302-13.39-3.374-17.69,2.072c-4.306,5.445-3.375,13.382,2.072,17.683
		c2.717,2.156,6.063,2.999,9.261,2.623c3.208-0.375,6.271-1.968,8.429-4.695C190.517,385.053,189.587,377.117,184.143,372.814z
		 M180.129,385.697c-1.654,2.091-4.708,2.449-6.806,0.797c-2.092-1.661-2.448-4.709-0.797-6.806
		c0.836-1.045,2.006-1.662,3.232-1.806c1.239-0.144,2.531,0.185,3.575,1.009C181.427,380.548,181.784,383.596,180.129,385.697z"/>
	<path fill="#040000" d="M224.104,294.264c3.349-0.392,6.329-2.062,8.428-4.701c2.072-2.638,3.008-5.932,2.617-9.273
		s-2.063-6.328-4.689-8.414c-2.651-2.084-5.938-3.018-9.286-2.625c-3.332,0.391-6.326,2.059-8.406,4.698
		c-2.085,2.639-3.022,5.933-2.63,9.272c0.391,3.341,2.063,6.33,4.703,8.416C217.476,293.72,220.772,294.654,224.104,294.264z
		 M218.843,278.752c0.808-1.017,1.957-1.656,3.232-1.806c1.287-0.151,2.565,0.205,3.573,1.009c1.012,0.802,1.657,1.95,1.807,3.236
		c0.151,1.288-0.211,2.554-1.01,3.57c-0.795,1.014-1.956,1.656-3.243,1.807c-1.275,0.149-2.541-0.208-3.561-1.01
		s-1.657-1.951-1.809-3.239C217.681,281.033,218.035,279.768,218.843,278.752z"/>
	<path fill="#040000" d="M267.505,394.267c-2.125,0.249-3.648,2.174-3.4,4.3c0.249,2.124,2.176,3.645,4.302,3.396
		c2.125-0.25,3.652-2.175,3.403-4.3C271.559,395.54,269.63,394.019,267.505,394.267z"/>
	<path fill="#040000" d="M200.898,365.103c2.123-0.249,3.64-2.173,3.391-4.297c-0.249-2.126-2.169-3.649-4.293-3.4l-0.009,0.001
		c-2.121,0.249-3.641,2.175-3.392,4.301C196.844,363.831,198.768,365.353,200.898,365.103z"/>
	<path fill="#040000" d="M177.705,297.014c2.116-0.248,3.64-2.171,3.39-4.298c-0.249-2.126-2.176-3.645-4.291-3.396l-0.011,0.001
		c-2.126,0.248-3.641,2.172-3.392,4.297C173.65,295.744,175.573,297.264,177.705,297.014z"/>
	<path fill="#040000" d="M237.602,312.134c0.25,2.13,2.171,3.646,4.297,3.396c2.122-0.249,3.647-2.17,3.398-4.298
		c-0.248-2.122-2.178-3.644-4.299-3.396l-0.004,0.001C238.866,308.087,237.354,310.012,237.602,312.134z"/>
	<path fill="#040000" d="M292.794,325.374c2.131-0.249,3.65-2.177,3.401-4.302c-0.249-2.124-2.171-3.646-4.304-3.396
		c-2.124,0.25-3.648,2.175-3.399,4.298C288.74,324.097,290.669,325.623,292.794,325.374z"/>
	<path fill="#040000" d="M270.828,290.202c2.121-0.248,3.644-2.174,3.395-4.298c-0.248-2.127-2.176-3.651-4.297-3.402l-0.007,0.001
		c-2.126,0.249-3.638,2.176-3.389,4.303C266.779,288.93,268.701,290.452,270.828,290.202z"/>
	<path fill="#040000" d="M202.406,312.237c2.133-0.25,3.652-2.176,3.404-4.298c-0.25-2.13-2.173-3.652-4.305-3.402
		c-2.125,0.248-3.651,2.174-3.401,4.304C198.352,310.964,200.282,312.485,202.406,312.237z"/>
	<path fill="#ECE173" d="M291.835,587.626c1.835,15.664-9.373,29.837-25.033,31.673c-15.66,1.833-29.839-9.365-31.674-25.032
		c-1.833-15.65,9.371-29.838,25.032-31.673C275.821,560.759,290.001,571.97,291.835,587.626z"/>
	<path fill="#DF7C3A" d="M272.57,576.643c0.133,1.14-1.3,2.243-3.197,2.465c-1.909,0.223-3.553-0.52-3.686-1.66
		c-0.134-1.139,1.295-2.239,3.203-2.464C270.787,574.764,272.436,575.502,272.57,576.643z"/>
	<path fill="#DF7C3A" d="M246.154,596.94c1.347-0.157,2.331-1.209,2.198-2.35c-0.135-1.143-1.336-1.938-2.682-1.779
		c-1.346,0.155-2.331,1.208-2.197,2.352C243.607,596.303,244.806,597.1,246.154,596.94z"/>
	<path fill="#DF7C3A" d="M277.454,605.182c0.258,2.192-1.937,4.27-4.896,4.616c-2.969,0.348-5.573-1.166-5.831-3.36
		c-0.258-2.203,1.928-4.262,4.896-4.609C274.583,601.478,277.196,602.975,277.454,605.182z"/>
	<path fill="#040000" d="M293.081,588.596c-1.346-17.039-16.653-29.066-33.017-27.104c-7.833,0.911-14.935,4.873-19.823,11.065
		c-4.909,6.218-7.108,13.978-6.187,21.839c0.47,4.014,1.729,7.794,3.647,11.184l0.001,0.008c3.318,5.848,8.585,10.499,15.1,13.028
		c0.449,0.181,0.952-0.045,1.125-0.491c0.178-0.448-0.045-0.947-0.496-1.121c-2.971-1.161-5.67-2.787-8.017-4.78
		c5.196-0.213,10.42-0.571,15.563-1.071c1.833-0.187,3.69,0.241,5.223,1.201c1.805,1.121,4.036,1.591,6.283,1.328
		c0.119-0.014,0.238-0.027,0.362-0.045c2.2-0.336,4.208-1.361,5.661-2.871c1.117-1.316,2.956-2.437,4.852-2.756
		c0.867-0.16,1.744-0.331,2.618-0.495c-4.437,6.003-11.237,10.233-19.214,11.167c-3.221,0.377-6.437,0.206-9.571-0.53
		c-0.461-0.104-0.93,0.182-1.038,0.656c-0.11,0.467,0.178,0.928,0.649,1.04c3.325,0.774,6.74,0.956,10.164,0.558
		c7.871-0.923,14.908-4.85,19.822-11.067c4.661-5.897,6.879-13.182,6.301-20.64C293.089,588.667,293.09,588.625,293.081,588.596z
		 M290.442,598.347c-2.518,0.536-5.077,1.055-7.625,1.514c-2.053,0.379-4.113,0.011-5.813-1.038c-1.798-1.105-4.022-1.57-6.249-1.31
		c-0.146,0.018-0.262,0.031-0.357,0.041c-2.208,0.337-4.223,1.362-5.671,2.878c-1.354,1.465-3.399,2.525-5.393,2.693
		c-6.745,0.645-13.592,1.026-20.368,1.152c-1.397-2.577-2.396-5.393-2.928-8.358c1.584-0.119,3.304-0.241,4.991-0.297
		c0.556-0.022,1.144-0.03,1.767-0.034c0.435,1.356,1.988,2.304,3.763,2.203c1.274-0.084,2.791-0.764,3.339-2.133
		c2.069,0.014,4.269-0.013,6.505-0.214c2.889-0.251,6.202-0.876,9.113-1.448c1.981-0.393,4.033-0.787,6.056-1.084
		c2.019-0.293,4.103-0.497,6.116-0.698c3.005-0.291,6.118-0.591,9.142-1.21c1.386-0.279,2.865-0.657,4.585-1.15
		C291.533,592.778,291.19,595.643,290.442,598.347z M247.916,595.51c-0.368,0.316-0.89,0.519-1.45,0.55
		c-1.075,0.06-2.008-0.491-2.051-1.208c-0.035-0.713,0.828-1.373,1.896-1.433c1.069-0.065,2.001,0.494,2.046,1.211
		C248.382,595.045,248.092,595.354,247.916,595.51z M278.329,567.297c-6.113,1.119-12.341,2.044-18.538,2.743
		c-0.006,0.002-0.016,0.002-0.022,0.004c-1.256,0.146-2.422,0.853-3.196,1.936c-0.318,0.445-0.883,0.747-1.52,0.821
		c-0.677,0.081-1.345-0.121-1.739-0.516c-0.883-0.892-2.146-1.368-3.465-1.306c-1.476,0.068-3.615,0.165-6.106,0.265
		c4.294-4.319,10.019-7.269,16.522-8.031C266.828,562.446,273.125,564.029,278.329,567.297z M242.102,573.053
		c3.219-0.131,6.02-0.252,7.833-0.337c0.823-0.04,1.604,0.245,2.145,0.79c0.772,0.781,1.962,1.161,3.175,1.019
		c1.134-0.132,2.128-0.69,2.731-1.532c0.497-0.703,1.202-1.134,1.999-1.228c6.811-0.768,13.658-1.809,20.361-3.081
		c2.3,1.74,4.326,3.822,6.004,6.197c-2.377,0.531-4.8,1.054-7.23,1.557c-1.947,0.396-3.998,0.648-6.031,0.733
		c-0.018-2.124-2.405-3.557-4.569-3.329c-1.82,0.117-3.797,1.425-3.985,3.349c-3.863,0.346-8.055,1.132-12.021,1.577
		c-0.473,0.063-0.811,0.494-0.755,0.971c0.065,0.474,0.494,0.814,0.97,0.759c4.026-0.445,8.075-1.235,12.19-1.586
		c0.738,1.332,2.509,2.054,4.181,1.916c1.307-0.133,2.664-0.703,3.466-1.895c2.194-0.059,4.609-0.318,6.908-0.791
		c2.649-0.547,5.306-1.119,7.894-1.705c1.044,1.704,1.904,3.536,2.569,5.47c-1.575,0.448-2.922,0.783-4.197,1.04
		c-1.278,0.269-2.694,0.487-4.316,0.694c-0.474,0.059-0.811,0.494-0.751,0.97c0.057,0.475,0.484,0.815,0.96,0.76l0.011-0.002
		c1.664-0.21,3.122-0.441,4.452-0.715c1.317-0.269,2.722-0.62,4.357-1.083c0.36,1.337,0.635,2.715,0.801,4.125
		c0.015,0.135,0.024,0.259,0.035,0.39c-1.827,0.539-3.367,0.927-4.803,1.222c-2.933,0.597-5.999,0.895-8.959,1.183
		c-2.033,0.2-4.141,0.41-6.203,0.709c-2.064,0.296-4.136,0.704-6.134,1.094c-2.924,0.574-5.951,1.161-8.934,1.426
		c-2.144,0.188-4.266,0.218-6.272,0.199c-0.427-1.368-1.983-2.339-3.771-2.23c-1.577,0.086-2.88,0.987-3.346,2.158
		c-0.668,0.009-1.296,0.023-1.894,0.041c-1.764,0.058-3.551,0.183-5.189,0.309c-0.184-1.569-0.229-3.123-0.152-4.655
		c1.504-0.121,3.084-0.228,4.654-0.277c2.038-0.063,4.132-0.028,6.15,0c3.028,0.048,6.155,0.098,9.224-0.179
		c2.889-0.246,6.208-0.873,9.113-1.442c1.981-0.392,4.031-0.791,6.056-1.086c2.023-0.295,4.104-0.492,6.115-0.694l0.641-0.063
		c0.473-0.04,0.827-0.469,0.782-0.945c-0.051-0.479-0.475-0.824-0.951-0.776l-0.639,0.054c-2.032,0.201-4.141,0.407-6.203,0.706
		c-2.062,0.3-4.135,0.703-6.133,1.098c-2.925,0.57-5.946,1.161-8.936,1.424c-2.985,0.266-6.064,0.218-9.04,0.168
		c-2.043-0.032-4.156-0.067-6.242-0.002c-1.505,0.045-3.011,0.148-4.454,0.257c0.212-1.928,0.637-3.806,1.235-5.604
		c3.884-0.341,7.796-0.746,11.659-1.191c0.478-0.056,0.818-0.482,0.762-0.962c-0.055-0.476-0.486-0.819-0.963-0.763
		c-3.572,0.413-7.189,0.783-10.784,1.104C238.777,577.711,240.27,575.24,242.102,573.053z M266.263,577.545
		c0.061-1.235,1.075-1.731,2.276-1.959c1.11-0.064,2.479,0.157,2.811,1.535c0.051,0.582-0.329,1.022-0.562,1.234
		c-0.453,0.412-1.127,0.688-1.838,0.743C267.864,579.122,266.594,578.896,266.263,577.545z M283.044,606.296
		c-2.185,0.396-4.354,1.589-5.795,3.269c-1.183,1.241-2.842,2.076-4.667,2.36c-0.103,0.011-0.203,0.023-0.302,0.035
		c-1.859,0.219-3.69-0.166-5.166-1.087c-1.854-1.149-4.093-1.666-6.308-1.453c-5.681,0.56-11.461,0.938-17.196,1.136
		c-1.365-1.397-2.588-2.924-3.635-4.563c6.5-0.144,13.056-0.521,19.52-1.136c2.326-0.195,4.789-1.39,6.489-3.212
		c1.184-1.245,2.846-2.087,4.682-2.363c0.096-0.02,0.197-0.03,0.293-0.042c1.843-0.217,3.667,0.16,5.137,1.06
		c2.063,1.281,4.561,1.734,7.036,1.275c2.24-0.412,4.489-0.856,6.708-1.323c-0.651,1.831-1.49,3.577-2.49,5.222
		C285.926,605.76,284.474,606.034,283.044,606.296z"/>
	<path fill="#040000" d="M273.238,601.274c-0.47-0.075-0.913,0.248-0.983,0.726c-0.073,0.476,0.256,0.917,0.73,0.988
		c1.484,0.229,2.543,1.005,2.693,1.996c0.096,0.636-0.192,1.31-0.808,1.909c-0.706,0.669-1.72,1.134-2.856,1.313
		c-1.137,0.171-2.244,0.024-3.115-0.405c-0.766-0.388-1.242-0.95-1.343-1.583c-0.149-0.979,0.606-2.039,1.931-2.67
		c0.431-0.216,0.609-0.74,0.4-1.169c-0.214-0.426-0.732-0.607-1.164-0.399c-2.019,0.981-3.146,2.751-2.879,4.502
		c0.182,1.209,0.992,2.228,2.281,2.875c1.114,0.557,2.48,0.764,3.88,0.602c0.092-0.013,0.181-0.021,0.272-0.037
		c1.488-0.229,2.837-0.862,3.795-1.772c1.039-1.001,1.51-2.215,1.328-3.425C277.131,602.964,275.499,601.607,273.238,601.274z"/>
	<path fill="#040000" d="M323.735,637.293l-1.045,0.123l-0.123-1.048c-0.17-1.447-1.485-2.489-2.929-2.319
		c-1.463,0.172-2.517,1.491-2.348,2.936l0.123,1.05l-1.044,0.122c-1.454,0.17-2.498,1.491-2.326,2.957
		c0.169,1.449,1.488,2.497,2.944,2.324l1.045-0.12l0.123,1.039c0.171,1.47,1.501,2.508,2.965,2.336
		c1.444-0.168,2.481-1.485,2.31-2.952l-0.122-1.042l1.045-0.123c1.465-0.172,2.507-1.49,2.336-2.945
		C326.519,638.165,325.199,637.122,323.735,637.293z"/>
	<path fill="#040000" d="M202.868,577.396l-1.046,0.121l-0.123-1.047c-0.17-1.454-1.484-2.5-2.928-2.33
		c-1.465,0.172-2.517,1.493-2.348,2.947l0.124,1.048l-1.045,0.124c-1.455,0.169-2.495,1.488-2.324,2.946
		c0.17,1.458,1.488,2.496,2.942,2.327l1.046-0.124l0.122,1.051c0.172,1.46,1.5,2.498,2.966,2.326
		c1.444-0.17,2.481-1.484,2.311-2.946l-0.123-1.048l1.045-0.122c1.463-0.172,2.51-1.488,2.339-2.944
		C205.653,578.268,204.332,577.225,202.868,577.396z"/>
	<path fill="#040000" d="M330.942,467.346l-1.046,0.123l-0.123-1.053c-0.17-1.446-1.485-2.494-2.93-2.325
		c-1.464,0.173-2.518,1.493-2.347,2.943l0.123,1.052l-1.045,0.123c-1.456,0.171-2.496,1.489-2.326,2.948
		c0.171,1.455,1.489,2.499,2.945,2.328l1.045-0.122l0.122,1.045c0.171,1.458,1.501,2.498,2.964,2.327
		c1.445-0.17,2.483-1.484,2.312-2.945l-0.122-1.045l1.045-0.121c1.465-0.172,2.505-1.495,2.334-2.949
		C333.726,468.219,332.406,467.176,330.942,467.346z"/>
	<path fill="#040000" d="M459.443,394.939l-1.047,0.123l-0.123-1.055c-0.171-1.447-1.483-2.491-2.929-2.322
		c-1.467,0.171-2.518,1.492-2.349,2.94l0.123,1.054l-1.043,0.123c-1.457,0.171-2.499,1.489-2.329,2.945
		c0.171,1.458,1.489,2.5,2.945,2.329l1.045-0.122l0.122,1.045c0.172,1.459,1.497,2.498,2.965,2.326
		c1.446-0.169,2.484-1.485,2.312-2.944l-0.121-1.045l1.046-0.123c1.467-0.172,2.507-1.491,2.337-2.948
		C462.226,395.808,460.908,394.768,459.443,394.939z"/>
	<path fill="#040000" d="M624.071,508.004l-1.048,0.123l-0.122-1.051c-0.17-1.451-1.484-2.494-2.928-2.326
		c-1.464,0.171-2.522,1.493-2.352,2.943l0.122,1.053l-1.045,0.121c-1.449,0.17-2.493,1.488-2.321,2.946
		c0.17,1.459,1.487,2.505,2.941,2.335l1.044-0.121l0.123,1.043c0.17,1.456,1.501,2.499,2.971,2.328
		c1.442-0.17,2.479-1.488,2.308-2.944l-0.122-1.047l1.046-0.122c1.462-0.171,2.508-1.492,2.337-2.952
		C626.852,508.875,625.531,507.833,624.071,508.004z"/>
	<path fill="#040000" d="M373.837,261.367l-1.046,0.123l-0.124-1.052c-0.17-1.449-1.483-2.494-2.925-2.325
		c-1.467,0.172-2.523,1.494-2.354,2.943l0.123,1.053l-1.044,0.122c-1.449,0.171-2.496,1.489-2.325,2.947
		c0.17,1.455,1.494,2.498,2.942,2.329l1.046-0.124l0.122,1.045c0.171,1.457,1.503,2.498,2.971,2.326
		c1.444-0.168,2.479-1.488,2.308-2.945l-0.122-1.044l1.045-0.121c1.462-0.172,2.509-1.493,2.339-2.947
		C376.62,262.24,375.298,261.196,373.837,261.367z"/>
</g>
</svg>
